<svg width="1050" height="779" viewBox="0 0 1050 779" fill="none" xmlns="http://www.w3.org/2000/svg">
<g opacity="0.4">
<path d="M276.404 222.134C276.071 219.502 275.396 216.923 274.398 214.464C274.271 213.999 274.048 213.566 273.744 213.192C273.44 212.818 273.061 212.511 272.631 212.291C272.057 212.142 271.455 212.135 270.878 212.271L261.876 213.647C261.123 213.681 260.401 213.961 259.822 214.444C258.65 215.676 259.804 217.659 259.768 219.358C259.728 221.268 258.028 222.819 256.185 223.332C254.304 223.712 252.363 223.688 250.492 223.262L237.905 221.308C241.612 220.126 244.912 217.926 247.427 214.961C249.084 213.001 249.965 209.342 247.571 208.414C246.86 208.219 246.118 208.159 245.385 208.238C239.682 208.283 235.194 203.527 229.855 201.524C226.438 200.325 222.729 200.235 219.258 201.269C215.787 202.302 212.733 204.406 210.531 207.278L217.236 207.601C217.867 207.566 218.492 207.732 219.022 208.076C220.492 209.282 218.665 211.599 218.872 213.487C219.141 215.94 222.402 216.464 224.861 216.712C227.319 216.96 230.438 218.955 229.255 221.122C216.899 225.373 204.324 212.812 191.347 214.359C188.063 214.75 184.961 216.039 181.755 216.849C162.166 221.799 141.915 208.591 121.904 211.389C117.455 212.146 113.083 213.298 108.839 214.83C106.115 215.723 103.274 216.689 101.295 218.76C99.3164 220.832 98.5632 224.374 100.438 226.54C95.2708 226.965 90.0691 226.471 85.0746 225.082C86.4252 225.831 87.5488 226.931 88.3274 228.264C89.106 229.597 89.511 231.115 89.4997 232.658C81.4318 233.972 73.5775 236.364 66.1481 239.77C67.5348 242.073 69.1543 244.228 70.9814 246.2L60.7676 252.754C64.2183 253.623 66.0024 258.322 63.9957 261.258C67.5737 259.668 69.7911 255.555 73.6172 254.721C76.1238 254.175 78.6743 255.199 81.0521 256.161C83.43 257.123 86.0435 258.056 88.5051 257.334C90.9668 256.612 92.7824 253.424 91.2182 251.393C101.74 248.327 112.614 246.63 123.57 246.344C124.415 246.238 125.273 246.401 126.02 246.809C127.446 247.797 127.071 249.932 126.994 251.664C126.918 253.396 128.269 255.673 129.819 254.892C127.996 256.471 129.554 259.444 131.304 261.105C133.053 262.766 135.162 265.058 134.091 267.218C133.811 267.782 133.337 268.233 133.068 268.802C132.274 270.481 133.535 272.439 135.022 273.555C136.509 274.67 138.33 275.449 139.363 276.994C140.396 278.538 139.926 281.241 138.08 281.457L132.83 274.8C131.037 276.657 129.807 278.985 129.284 281.512C134.851 286.057 135.688 295.308 131.028 300.776C128.646 303.571 125.26 305.269 122.304 307.449C119.348 309.628 116.613 312.732 116.62 316.402C116.633 322.742 116.114 328.632 118.493 334.51C122.879 345.349 127.943 355.902 133.655 366.106C135.155 368.785 137.094 371.722 140.132 372.183C136.292 362.846 132.835 353.363 129.761 343.735C131.763 343.742 134.077 343.901 135.251 345.521C136.222 346.863 136.014 348.686 136.316 350.314C136.7 351.892 137.34 353.396 138.211 354.766L156.55 387.393C158.07 390.098 159.814 393.001 162.719 394.096C164.577 394.796 166.726 394.665 168.436 395.673C169.776 396.463 170.679 397.866 172.045 398.61C175.908 400.715 181.28 396.678 184.89 399.191C185.922 399.91 186.579 401.052 187.53 401.874C190.864 404.758 196.334 402.829 200.183 404.98C202.664 406.367 203.949 409.14 205.272 411.653C208.587 417.947 213.949 424.114 221.052 424.615C223.283 424.773 225.562 424.35 227.743 424.846C229.924 425.342 232.071 427.243 231.721 429.449C231.121 433.232 232.992 437.374 232.489 441.171C231.574 448.087 221.752 451.127 220.908 458.052C220.724 459.568 221.013 461.133 220.651 462.618C220.208 464.437 218.841 465.918 218.354 467.726C217.433 471.152 219.891 474.562 222.591 476.868C225.291 479.173 228.512 481.16 229.988 484.387C231.548 487.798 230.782 491.775 231.289 495.491C232.397 503.602 239.412 509.615 246.631 513.493C248.83 514.674 251.191 515.818 252.615 517.867C254.473 520.542 254.288 524.068 254.908 527.264C256.428 535.091 263.025 541.54 263.212 549.511C263.346 555.177 260.192 560.316 258.309 565.662C256.543 570.783 255.904 576.225 256.436 581.616C256.967 587.007 258.656 592.22 261.388 596.899C262.797 599.275 264.482 601.516 265.479 604.092C267.258 608.689 266.681 613.914 268.321 618.563C270.489 624.708 276.447 629.784 275.876 636.275C278.581 641.885 284.554 644.641 290.559 646.311L301.323 649.304C303.384 649.877 305.538 650.454 307.636 650.039C309.735 649.624 311.738 647.884 311.684 645.748C306.405 644.559 300.958 643.294 296.607 640.082C292.255 636.869 289.275 631.148 290.926 626.002C291.691 623.615 293.32 620.859 291.771 618.887C290.885 617.758 289.264 617.463 288.264 616.433C286.704 614.826 287.24 612.127 288.361 610.189C289.483 608.252 291.103 606.52 291.555 604.328C291.784 603.102 291.631 601.836 291.118 600.698C290.605 599.561 289.757 598.608 288.686 597.966C290.682 597.214 292.497 596.05 294.013 594.552C295.414 592.954 296.062 590.49 294.959 588.673C298.232 589.088 302.096 589.291 304.245 586.79C305.96 584.794 305.843 581.808 305.165 579.266C304.487 576.723 303.341 574.253 303.305 571.622C310.855 571.979 318.422 571.723 325.93 570.856C324.844 567.203 322.377 564.117 319.051 562.251C322.452 561.677 325.55 557.61 326.624 554.337C327.699 551.064 327.425 547.498 326.761 544.118C326.506 543.248 326.471 542.328 326.659 541.441C327.042 540.222 328.241 539.478 329.35 538.842L346.229 529.159C347.236 528.655 348.149 527.982 348.928 527.169C350.697 525.095 350.435 521.963 349.529 519.392C348.624 516.822 347.173 514.405 346.824 511.703C345.781 503.62 354.443 497.822 357.367 490.214C358.514 487.228 358.748 483.982 358.97 480.792C359.208 477.366 359.226 473.386 356.592 471.177C354.067 469.061 350.121 469.533 347.479 467.564C345.057 465.759 344.221 462.253 341.575 460.795C339.172 459.471 336.158 460.313 333.485 459.691C328.779 458.594 325.818 453.177 321.011 452.675C318.299 452.392 315.23 453.716 313.008 452.139C311.049 450.749 310.971 447.955 310.598 445.585C309.945 441.9 308.177 438.505 305.532 435.855C302.887 433.205 299.493 431.428 295.807 430.764C293.011 430.316 289.967 430.486 287.589 428.951C285.18 427.397 284.076 424.487 282.184 422.335C279.134 418.867 274.332 417.635 269.833 416.578L251.534 412.281C248.286 411.519 244.098 411.114 242.355 413.956C241.839 415.038 241.474 416.186 241.269 417.367C240.616 419.504 239.302 421.378 237.515 422.722C235.728 424.065 233.561 424.808 231.324 424.844C229.791 422.231 227.306 420.311 224.389 419.484C222.533 418.968 220.547 418.91 218.778 418.15C217.814 417.68 216.956 417.019 216.257 416.207C215.558 415.394 215.032 414.448 214.712 413.425C214.392 412.403 214.284 411.326 214.395 410.261C214.506 409.195 214.833 408.164 215.357 407.229C216.412 405.353 216.82 403.182 216.517 401.052C216.214 398.921 215.217 396.95 213.681 395.441C210.569 392.651 206.067 391.977 201.895 392.256C200.802 389.874 202.629 387.187 204.598 385.456C206.567 383.725 208.958 382.023 209.387 379.439C210.062 375.373 204.868 372.285 200.924 373.497C196.981 374.71 194.464 378.535 192.8 382.307C191.845 384.47 191.034 386.749 189.528 388.574C188.022 390.398 185.597 391.704 183.303 391.119C180.056 390.29 178.802 386.437 178.083 383.167C177.119 378.78 176.149 374.332 176.351 369.845C176.553 365.359 178.068 360.752 181.38 357.714C186.778 352.765 195.059 353.25 202.344 354.039C200.623 352.103 201.048 348.838 202.889 347.015C203.862 346.153 205.03 345.54 206.292 345.23C207.555 344.92 208.875 344.922 210.136 345.237C212.332 345.693 214.309 346.874 215.751 348.59C217.821 351.111 218.41 354.514 219.974 357.376C221.539 360.237 225.058 362.678 227.937 361.143C230.425 359.817 230.82 356.372 230.201 353.624C229.582 350.877 228.267 348.205 228.491 345.398C228.919 340.041 234.478 336.817 239.384 334.611C244.29 332.405 249.907 329.438 250.684 324.121C250.711 323.08 250.907 322.05 251.266 321.073C251.81 320.209 252.566 319.499 253.463 319.009C267.78 309.559 282.336 299.993 298.7 294.829C299.552 294.56 299.652 294.859 300.519 294.648C301.734 293.947 300.929 292.008 299.765 291.227C298.601 290.446 297.044 289.847 296.749 288.477C296.532 287.471 297.126 286.482 297.28 285.464C297.659 282.962 294.662 280.652 292.335 281.652C291.021 279.913 293.622 277.893 295.725 277.315C302.04 275.579 308.523 274.521 315.063 274.159C315.818 274.04 316.591 274.171 317.264 274.533C318.363 275.293 318.222 277.036 317.444 278.121C316.665 279.206 315.454 279.887 314.484 280.805C313.424 281.836 312.668 283.139 312.299 284.57C311.929 286.001 311.96 287.506 312.389 288.921C315.803 290.655 319.515 292.441 323.296 291.83C327.078 291.219 330.434 286.975 328.657 283.586C327.002 280.429 322.03 279.718 321.175 276.259C320.174 272.209 325.914 268.606 324.621 264.64C324.054 262.902 322.321 261.88 320.99 260.625C319.419 259.087 318.35 257.111 317.925 254.955C317.499 252.799 317.735 250.565 318.604 248.546C316.437 248.927 314.21 248.783 312.11 248.127C310.011 247.471 308.099 246.321 306.536 244.775C303.65 241.865 301.347 237.275 297.248 237.406C293.487 237.525 290.247 241.908 286.73 240.571C285.865 240.242 284.952 239.572 284.114 239.965C283.839 240.143 283.609 240.381 283.44 240.661C283.271 240.941 283.168 241.256 283.138 241.582C282.245 245.85 283.782 250.713 281.453 254.401C278.919 258.415 273.057 258.971 269.984 262.59C268.316 264.555 267.67 267.202 266.137 269.273C264.604 271.344 261.351 272.661 259.511 270.856C260.415 269 260.662 266.892 260.211 264.877C259.761 262.862 258.639 261.059 257.03 259.764C255.322 258.65 253.48 257.756 251.549 257.101C249.391 256.189 247.339 255.046 245.427 253.693C244.469 253.116 243.691 252.284 243.179 251.291C242.774 250.047 242.829 248.699 243.333 247.492C244.266 244.821 245.911 242.455 248.092 240.649C250.273 238.844 252.906 237.668 255.708 237.248C258.157 236.915 261.008 237.032 262.629 235.168C263.487 234.182 263.937 232.69 265.182 232.29C265.978 232.13 266.805 232.232 267.539 232.58L276.682 235.794C277.702 236.254 278.825 236.439 279.939 236.332C280.491 236.258 280.995 235.977 281.349 235.547C281.703 235.118 281.882 234.57 281.848 234.014C281.556 232.498 279.22 231.77 279.432 230.24C279.552 229.744 279.818 229.297 280.198 228.955C283.497 225.448 287.532 222.712 292.014 220.944C296.496 219.177 301.314 218.42 306.123 218.73C307.277 220.623 305.452 222.865 303.933 224.481C302.415 226.097 301.194 228.984 303.031 230.228C303.783 230.612 304.621 230.8 305.465 230.775C307.716 231.08 309.904 231.743 311.945 232.738C315.104 234.112 318.203 235.614 321.241 237.246C320.973 235.245 320.717 233.138 321.476 231.267C322.235 229.396 324.393 227.929 326.278 228.657C328.094 229.359 329.026 231.762 330.961 231.982C333.543 232.275 334.561 228.466 333.483 226.105C332.405 223.744 330.27 221.767 330.092 219.178C329.971 217.432 330.637 215.265 329.24 214.208C328.743 213.89 328.179 213.693 327.592 213.63L292.714 207.22C290.643 206.839 287.65 207.131 287.558 209.232C287.507 210.405 288.556 211.566 288.091 212.644C287.595 213.795 285.966 213.69 284.78 214.097C282.939 214.729 282.015 216.912 282.192 218.849C282.515 220.773 283.262 222.601 284.376 224.203C282.108 223.256 278.673 223.082 276.404 222.134Z" fill="#D7D7D7"/>
<path d="M248.575 192.562C246.376 191.835 244.006 191.801 241.787 192.465C239.567 193.129 237.606 194.458 236.169 196.273C235.595 197.028 235.112 198.07 235.593 198.887C236.282 200.06 238.039 199.597 239.334 199.177C241.237 198.498 243.308 198.449 245.242 199.037C246.458 199.454 247.546 200.19 248.767 200.592C249.361 200.84 250.012 200.922 250.65 200.829C251.287 200.736 251.888 200.471 252.386 200.063C253.224 199.21 253.277 197.882 253.278 196.687C253.336 196.287 253.304 195.879 253.184 195.492C253.065 195.106 252.86 194.752 252.585 194.455C252.097 194.172 251.547 194.01 250.983 193.981C249.72 193.748 248.577 193.081 247.753 192.096" fill="#D7D7D7"/>
<path d="M261.15 189.065C260.658 189.038 260.167 189.138 259.725 189.356C259.283 189.573 258.904 189.901 258.625 190.306C258.346 190.712 258.177 191.183 258.133 191.674C258.089 192.164 258.171 192.657 258.373 193.106C259.885 193.518 261.464 193.621 263.017 193.409C263.791 193.289 264.512 192.942 265.09 192.414C265.667 191.885 266.075 191.197 266.262 190.437C264.434 190.769 262.548 190.409 260.972 189.428" fill="#D7D7D7"/>
<path d="M303.346 183.224C299.232 184.097 295.235 185.453 291.439 187.264C293.229 187.951 294.75 189.193 295.779 190.809C296.807 192.425 297.289 194.328 297.153 196.238C296.992 196.971 297.011 197.732 297.207 198.457C297.644 199.515 298.912 199.913 300.026 200.185C302.027 200.793 304.117 201.059 306.207 200.973C307.253 200.918 308.268 200.604 309.162 200.058C310.055 199.513 310.798 198.754 311.324 197.85C311.627 196.991 311.982 196.152 312.388 195.337C315.058 191.275 322.991 196.187 325.858 192.261C326.868 190.878 326.775 188.796 328.092 187.701C328.773 187.223 329.562 186.922 330.388 186.825C336.154 185.681 341.977 184.853 347.833 184.344C350.608 184.102 354.225 183.107 354.248 180.326C343.797 178.276 332.96 179.732 323.423 184.467C319.987 186.186 315.443 189.802 312.133 187.523C310.893 186.67 310.955 184.372 309.249 183.413C307.505 182.432 305.197 182.831 303.346 183.224Z" fill="#D7D7D7"/>
<path d="M337.524 189.608L342.43 190.549C341.526 190.509 340.625 190.662 339.786 190.997C338.947 191.333 338.189 191.843 337.563 192.495C336.937 193.146 336.457 193.923 336.155 194.774C335.854 195.625 335.737 196.531 335.814 197.43C340.408 198.963 345.417 197.471 350.256 197.675C355.096 197.879 360.726 201.332 359.9 206.099C359.65 207.54 358.817 208.981 359.25 210.378C359.554 211.357 360.419 212.052 360.907 212.954C361.924 214.834 361.111 217.211 359.827 218.919C358.542 220.628 356.816 221.991 355.689 223.807C352.885 228.323 354.478 234.161 356.148 239.206C356.631 241.113 357.523 242.891 358.762 244.42C361.236 247.047 365.269 247.276 368.88 247.329C371.509 247.367 374.52 247.237 376.182 245.203C378.352 242.547 376.835 238.404 378.264 235.287C379.561 232.457 382.867 231.242 385.863 230.381C391.35 228.803 396.942 227.462 402.13 225.078C408.572 222.119 414.592 217.507 421.673 217.126C423.659 217.019 425.695 217.253 427.608 216.71C429.522 216.166 431.339 214.514 431.194 212.532C431.071 210.839 429.636 209.596 428.516 208.319C427.395 207.043 426.515 205.08 427.545 203.73L446.104 200.267C444.788 196.687 443.763 191.971 446.786 189.64C447.877 188.799 449.337 188.463 450.266 187.446C451.849 185.713 451.053 182.728 449.226 181.254C447.399 179.781 444.928 179.439 442.588 179.245C434.45 178.57 426.266 179.016 418.113 179.462C402.175 180.335 386.237 181.207 370.298 182.08C367.09 182.255 363.386 181.987 360.443 183.08C357.952 184.006 356.18 185.705 353.331 186.302C348.071 187.404 342.283 186.658 337.524 189.608Z" fill="#D7D7D7"/>
<path d="M425.412 228.339C424.912 228.26 424.401 228.375 423.984 228.662C423.709 228.965 423.545 229.353 423.519 229.762C423.203 231.566 423.58 233.422 424.576 234.96C425.083 235.715 425.783 236.32 426.604 236.713C427.424 237.106 428.335 237.272 429.241 237.194C431.45 236.913 433.078 235.031 435.109 234.112C438.239 232.698 451.532 230.493 442.336 225.531C439.168 223.821 437.12 225.331 434.622 226.457C431.781 227.909 428.597 228.559 425.412 228.339Z" fill="#D7D7D7"/>
<path d="M505.95 186.807C504.876 187.245 503.978 188.026 503.395 189.027C503.127 189.536 503.065 190.128 503.221 190.682C503.378 191.235 503.742 191.707 504.237 192C504.638 192.145 505.063 192.213 505.489 192.198L509.855 192.329C511.71 192.384 514.026 192.779 514.525 194.564C514.895 195.889 514.067 197.593 515.066 198.54C515.495 198.871 516.011 199.072 516.551 199.118C517.989 199.487 519.491 199.536 520.95 199.26C524.127 198.409 522.457 196.473 523.458 194.748C524.989 192.11 524.724 193.707 527.421 192.195C529.413 191.079 531.987 189.053 530.324 186.207C527.433 181.258 510.216 184.68 505.95 186.807Z" fill="#D7D7D7"/>
<path d="M592.12 184.318L589.585 184.656C583.868 185.418 578.119 186.187 572.613 187.902C574.997 188.843 577.497 189.456 580.046 189.723C581.449 189.792 582.843 189.99 584.209 190.314C586.641 191.037 589.092 192.905 591.441 191.948C592.898 191.355 593.373 189.84 594.58 189.037C595.413 188.483 598.574 187.586 598.927 187.026C601.783 182.502 594.315 184.026 592.12 184.318Z" fill="#D7D7D7"/>
<path d="M603.251 195.826C599.865 197.717 596.723 200.015 593.896 202.669C592.705 203.787 591.489 205.178 591.597 206.808C591.74 208.973 594.05 210.229 596.05 211.075L604.154 214.502C605.138 213.118 604.238 211.207 603.222 209.847C602.206 208.487 600.998 206.914 601.447 205.277C601.959 203.409 604.239 202.773 606.151 202.451C609.266 201.927 617.67 201.969 616.66 196.955C615.47 191.046 606.378 194.08 603.251 195.826Z" fill="#D7D7D7"/>
<path d="M601.621 530.187C600.85 532.418 600.776 535.046 602.111 536.994C603.608 539.179 606.605 539.994 609.198 539.44C611.78 538.753 614.082 537.276 615.778 535.214C617.33 533.487 618.607 531.532 619.563 529.417C620.898 526.121 621.84 522.68 622.368 519.165L624.885 505.969C625.447 503.02 625.425 493.979 619.998 496.925C618.516 497.729 615.083 504.083 613.53 505.885C610.73 509.132 610.359 512.283 608.885 516.217C607.039 521.145 603.328 525.251 601.621 530.187Z" fill="#D7D7D7"/>
<path d="M888.243 597.711C886.468 597.019 884.744 596.2 883.087 595.26C881.425 599.823 880.541 604.633 880.473 609.489L892.623 602.622C894.451 601.589 896.523 600.153 896.484 598.056C896.5 597.797 896.446 597.538 896.328 597.307C896.21 597.076 896.032 596.881 895.812 596.743C895.542 596.635 895.248 596.6 894.96 596.643C893.158 596.793 891.516 597.678 889.816 598.294C888.116 598.91 886.129 599.235 884.569 598.322" fill="#D7D7D7"/>
<path d="M952.341 601.789C951.007 602.151 949.704 602.618 948.444 603.185C945.656 604.602 943.759 607.294 941.25 609.16C938.848 610.946 935.958 611.927 933.12 612.88C932.286 613.617 932.669 615.102 933.575 615.749C934.549 616.303 935.667 616.553 936.784 616.469C939.732 616.534 942.838 616.563 945.42 615.141C946.875 614.198 948.237 613.119 949.486 611.918C952.505 609.402 956.131 607.742 959.72 606.137C961.026 605.645 962.234 604.923 963.286 604.007C965.542 601.788 965.7 598.365 962.448 597.609C959.821 596.999 954.842 600.98 952.341 601.789Z" fill="#D7D7D7"/>
<path d="M980.661 583.311C980.807 581.784 980.604 580.244 980.067 578.807C979.53 577.37 978.673 576.073 977.56 575.016C977.527 578.071 977.434 581.326 975.714 583.852C974.488 585.652 972.566 586.868 971.223 588.583C969.88 590.297 969.284 593.015 970.859 594.52C971.866 595.285 973.093 595.707 974.358 595.723C977.493 596.092 981.123 596.297 983.322 594.035C984.522 592.8 985.106 590.97 986.57 590.062C987.116 589.834 987.603 589.486 987.996 589.044C988.6 588.084 987.64 586.819 986.558 586.473C985.477 586.127 984.286 586.29 983.199 585.962C982.112 585.633 981.115 584.413 981.673 583.425" fill="#D7D7D7"/>
<path d="M930.326 471.297C928.681 471.697 926.978 471.797 925.297 471.593C922.505 471.08 920.333 468.979 918.079 467.256C912.721 463.182 906.209 460.909 899.476 460.764C893.352 460.649 887.171 462.306 881.156 461.15C881.549 463.333 883.42 464.97 885.415 465.943C887.411 466.917 889.613 467.406 891.618 468.36C894.83 469.902 897.377 472.548 898.793 475.814C899.438 477.32 899.845 478.959 900.823 480.273C902.822 482.96 906.612 483.55 909.957 483.331C914.318 483.044 918.873 481.791 922.93 483.414C926.034 484.656 928.255 487.369 930.846 489.479C933.438 491.588 937.088 493.154 940.064 491.632C936.973 490.632 934.283 488.672 932.386 486.038C930.489 483.403 929.485 480.232 929.521 476.988C932.439 477.256 940.845 477.152 940.392 472.199C940.009 468.001 932.832 470.844 930.326 471.297Z" fill="#D7D7D7"/>
<path d="M892.147 505.45C892.665 502.611 895.5 500.104 894.617 497.357C894.006 495.457 891.8 494.519 889.803 494.472C887.806 494.425 885.843 495.019 883.846 495.075C882.546 495.006 881.243 495.025 879.946 495.131C875.981 495.782 873.538 499.932 869.802 501.408C867.53 502.305 864.978 502.133 862.615 502.754C857.252 504.162 853.858 509.224 850.109 513.305C844.052 519.87 836.16 524.466 827.457 526.5C824.407 527.205 821.129 527.656 818.705 529.634C815.496 532.254 814.705 536.744 813.991 540.823C812.018 552.085 809.003 563.141 804.984 573.847L817.719 575.471C820.14 575.78 822.649 576.082 824.982 575.366C826.677 574.727 828.283 573.873 829.76 572.824C835.431 569.307 841.779 567.018 848.392 566.106C851.727 565.649 855.224 565.565 858.353 566.803C861.483 568.041 864.168 570.849 864.43 574.201C865.783 573.78 867.226 573.735 868.603 574.07C869.98 574.404 871.24 575.106 872.249 576.1C874.243 578.13 875.549 580.733 875.982 583.544C876.318 585.284 876.653 587.369 878.27 588.099C879.589 588.695 881.102 588.053 882.545 587.938C887.441 587.547 891.504 593.249 896.316 592.267C901.478 591.214 902.745 583.494 907.78 581.947C910.672 581.059 914.728 582.139 916.113 579.452C917.333 577.084 914.898 574.351 915.149 571.7C915.459 568.434 919.315 567.049 922.287 565.655C932.535 560.853 937.399 547.076 932.433 536.915C929.49 530.895 923.701 526.156 922.631 519.542C921.809 514.454 923.817 508.52 920.569 504.515C918.917 502.478 916.119 501.353 915.136 498.922C914.517 497.392 914.766 495.655 914.433 494.039C914.099 492.422 912.687 490.731 911.089 491.15C906.45 492.366 904.969 506.681 902.485 510.159C898.709 515.446 890.958 511.964 892.147 505.45Z" fill="#D7D7D7"/>
<path d="M806.394 476.706C804.808 476.262 803.077 475.824 801.558 476.459C800.039 477.093 799.152 479.321 800.371 480.426C809.909 480.055 819.506 479.687 828.963 480.981C839.86 482.471 850.643 486.164 861.587 485.077C855.336 483.235 848.981 481.762 842.556 480.666L831.842 478.622C828.968 478.021 826.064 477.573 823.142 477.28C817.029 476.775 812.403 478.389 806.394 476.706Z" fill="#D7D7D7"/>
<path d="M815.942 443.525C815.151 443.459 814.17 443.402 813.76 444.082C813.369 444.732 813.817 445.59 813.606 446.319C813.319 447.314 812.014 447.569 810.985 447.433C809.957 447.298 808.845 446.973 807.934 447.468C807.472 447.783 807.125 448.24 806.945 448.769C806.764 449.298 806.761 449.871 806.934 450.402C807.307 451.457 807.909 452.416 808.698 453.21C810.045 454.906 811.58 456.444 813.274 457.795C816.552 460.212 820.993 461.376 823.058 464.885C823.349 465.565 823.797 466.167 824.365 466.642C825.356 467.269 826.649 466.792 827.716 466.305L831.457 464.597C832.131 464.355 832.732 463.946 833.206 463.409C834.06 462.251 833.535 460.604 832.818 459.357C832.101 458.109 831.183 456.817 831.336 455.387C831.611 452.836 834.894 451.861 836.245 449.678C837.606 447.478 836.72 444.644 836.876 442.063C837.06 439.044 838.959 435.117 835.904 432.862C833.307 430.945 830.825 432.716 828.96 434.832C825.029 439.295 823.17 444.128 815.942 443.525Z" fill="#D7D7D7"/>
<path d="M838.65 398.422C839.927 400.864 842.589 402.322 843.982 404.7C845.491 407.278 845.32 410.61 846.957 413.109C848.637 415.673 852.019 417.034 852.961 419.95C853.99 423.134 851.656 427.003 853.516 429.785C853.863 430.24 854.301 430.618 854.802 430.895C855.303 431.171 855.855 431.341 856.425 431.394C856.995 431.446 857.57 431.38 858.113 431.198C858.656 431.017 859.155 430.726 859.58 430.342C860.364 429.489 860.784 428.363 860.749 427.205C860.715 426.048 860.23 424.949 859.396 424.144C858.294 423.14 856.713 422.707 855.793 421.535C855.314 420.859 854.995 420.083 854.86 419.266C854.358 416.908 854.438 414.464 855.094 412.145C855.34 411.556 855.402 410.907 855.273 410.282C854.859 409.08 853.229 408.995 852.085 408.437C849.487 407.17 849.55 403.508 850.004 400.657C849.702 402.555 842.931 399.326 842.222 398.251C840.814 396.114 841.58 391.993 841.301 389.633C838.261 391.096 837.088 395.435 838.65 398.422Z" fill="#D7D7D7"/>
<path d="M770.437 436.001C769.187 434.604 767.305 433.142 765.629 433.985C764.351 434.628 763.999 436.394 764.5 437.733C765.111 439.034 766.05 440.153 767.226 440.98C770.718 443.856 774.478 446.452 777.524 449.795C782.975 455.778 785.862 463.851 791.791 469.363C792.982 470.641 794.56 471.494 796.283 471.792C798.01 471.952 799.95 470.848 800.148 469.127C800.312 467.709 799.322 466.44 798.355 465.389C796.052 462.888 793.531 460.585 791.357 457.97C790.353 456.966 789.722 455.65 789.568 454.239C789.557 452.832 790.842 451.358 792.208 451.707C790.547 451.283 789.316 448.52 786.878 448C784.842 447.566 784.349 448.826 781.925 447.787C777.301 445.807 773.674 439.621 770.437 436.001Z" fill="#D7D7D7"/>
<path d="M879.07 299.944C877.744 299.55 876.44 299.085 875.164 298.55C871.731 297.521 867.189 300.041 867.647 303.591C867.951 305.95 870.149 307.541 871.363 309.587C873.163 312.621 872.683 316.47 871.737 319.868C871.505 320.92 871.063 321.915 870.438 322.794C869.565 323.721 868.52 324.471 867.362 325.004C862.727 327.6 858.639 331.069 855.324 335.219C854.964 335.602 854.713 336.074 854.597 336.587C854.433 337.786 855.64 338.659 856.322 339.659C857.837 341.88 856.742 344.869 856.892 347.552C856.869 347.931 856.943 348.31 857.108 348.653C857.273 348.996 857.522 349.291 857.833 349.51C858.746 349.973 859.828 349.186 860.323 348.29C861.966 345.318 860.729 340.547 863.81 339.114C864.393 338.843 865.099 338.729 865.488 338.217C866.105 337.406 865.51 336.205 865.823 335.235C866.292 333.779 868.286 333.714 869.816 333.778C872.451 333.888 875.086 333.538 877.601 332.743C878.588 332.509 879.484 331.99 880.178 331.252C881.1 330.104 881.018 328.472 880.834 327.012C879.912 319.734 877.604 312.7 874.034 306.289C876.741 306.634 879.686 306.933 882.022 305.524C883.33 304.735 884.898 302.376 884.249 300.77C883.223 298.231 881.37 300.368 879.07 299.944Z" fill="#D7D7D7"/>
<path d="M532.064 339.97C532.387 341.705 532.706 343.532 532.137 345.203C531.567 346.874 529.776 348.271 528.085 347.759C526.772 347.361 526.014 346.043 525.082 345.038C519.899 339.449 508.205 342.685 505.003 335.771C503.696 332.949 504.584 329.568 503.693 326.589C503.131 324.867 502.012 323.381 500.512 322.363C499.012 321.346 497.216 320.854 495.407 320.967C493.756 321.205 492.15 321.684 490.638 322.388C480.515 326.438 469.887 329.093 459.046 330.28C456.986 330.406 454.949 330.776 452.976 331.384C448.525 332.995 445.484 337.117 443.319 341.323C441.155 345.529 439.557 350.082 436.655 353.819C433.606 357.746 429.332 360.496 425.346 363.47C423.81 364.459 422.532 365.797 421.615 367.376C420.751 369.148 420.8 371.209 420.867 373.179L421.682 397.105C421.786 400.183 421.918 403.371 423.297 406.125C425.019 409.564 428.421 411.816 430.781 414.854C433.189 417.976 434.444 421.834 434.333 425.773C434.282 427.357 434.125 429.231 435.36 430.226C436.111 430.712 436.99 430.965 437.886 430.951L470.29 433.6C475.99 434.066 482.307 434.832 486.029 439.17C487.785 441.217 489.196 444.161 491.886 444.381C493.04 444.475 494.163 444.002 495.317 443.91C498.229 443.68 500.787 445.887 502.402 448.319C504.845 452.025 505.954 456.451 505.547 460.869C505.282 463.643 504.421 466.339 504.236 469.119C503.529 479.697 512.508 488.888 512.682 499.488C512.784 505.723 509.82 511.549 506.931 517.077C511.594 524.132 507.776 533.528 509.632 541.776C511.394 549.602 517.926 555.728 519.554 563.582C520.299 567.178 520.342 571.603 523.517 573.455C524.91 574.133 526.454 574.442 528.001 574.351C537.332 574.462 546.557 572.364 554.92 568.23C558.846 566.285 562.914 563.38 563.599 559.057C564.152 555.571 562.382 551.672 564.183 548.635C566.306 545.056 571.745 545.34 574.869 542.588C579.936 538.124 575.985 529.611 578.038 523.181C579.884 517.402 586.237 514.331 589.386 509.144C590.625 506.914 591.515 504.506 592.023 502.006C593.466 496.03 594.364 489.937 594.706 483.799C594.79 480.07 595.065 476.348 595.531 472.648C598.926 451.579 619.78 437.471 626.551 417.23C627.197 415.297 627.501 412.723 625.779 411.629C624.758 411.142 623.6 411.021 622.5 411.286L607.563 413.167C605.707 413.401 603.741 413.619 602.037 412.849C600.333 412.08 599.112 409.927 600.015 408.292C602.553 403.701 597.334 397.901 595.015 393.197C588.771 380.531 581.335 368.486 572.808 357.226C572.262 356.647 571.921 355.906 571.835 355.115L576.074 355.256C574.643 350.127 572.281 344.514 567.292 342.638C564.481 341.581 561.368 341.946 558.368 342.11C549.777 342.579 540.567 341.283 532.064 339.97Z" fill="#D7D7D7"/>
<path d="M558.375 224.386C560.624 226.771 563.143 229.299 566.396 229.715C572.141 230.449 576.272 224.515 578.902 219.361C578.999 220.675 579.606 221.899 580.593 222.773C581.58 223.647 582.87 224.102 584.187 224.041C585.606 223.803 586.959 223.274 588.163 222.489C599.546 216.276 612.296 212.983 625.268 212.908C625.143 211.927 625.387 210.934 625.952 210.122C626.517 209.309 627.364 208.734 628.328 208.508C630.965 207.986 633.341 210.264 634.613 212.63C635.886 214.995 636.679 217.738 638.7 219.508C640.722 221.279 644.635 221.202 645.434 218.638C646.2 216.176 643.632 214.076 641.499 212.625C639.365 211.173 637.117 208.487 638.553 206.345C649.453 203.935 660.419 201.516 671.572 201.037C673.471 201.103 675.363 200.778 677.13 200.081C678.831 199.247 680.183 197.355 679.725 195.519C677.291 196.09 674.742 195.925 672.403 195.044C670.064 194.162 668.04 192.605 666.591 190.571C682.066 189.295 698.525 188.208 712.24 195.481C713.885 199.01 705.498 201.946 707.742 205.128C708.458 206.143 709.892 206.262 711.135 206.285C720.665 206.462 730.25 206.635 739.673 205.198C743.117 204.673 746.595 203.932 750.052 204.358C755.81 205.067 760.735 208.905 766.401 210.156C768.706 210.665 771.292 210.682 773.235 209.343C775.179 208.003 776.015 204.953 774.422 203.212C779.756 197.99 788.609 199.284 795.645 201.784C802.682 204.284 809.349 208.315 816.796 208.873C822.137 209.272 827.552 207.837 832.829 208.749C836.146 209.322 839.232 210.796 842.473 211.701C848.603 213.414 855.088 213.052 861.453 213.134C877.693 213.353 893.755 216.541 908.845 222.54C910.808 223.179 912.606 224.24 914.113 225.649C915.517 227.151 916.233 229.485 915.289 231.31L899.697 229.035C901.166 231.923 904.967 232.416 908.053 233.412C911.14 234.409 914.34 237.813 912.485 240.471C909.141 239.408 906.11 242.747 904.421 245.82C902.732 248.893 900.673 252.573 897.168 252.76C894.03 252.927 890.234 250.258 888.188 252.641C891.015 256.202 893.435 260.067 895.404 264.163C897.425 268.369 898.864 273.668 896.133 277.451C895.703 278.127 895.051 278.632 894.289 278.879C892.058 279.443 890.609 276.717 889.009 275.065C886.993 272.983 883.944 272.394 881.214 271.417C878.484 270.441 875.608 268.52 875.394 265.631C875.261 263.834 876.211 262.163 876.911 260.502C878.087 257.703 878.601 254.67 878.414 251.639C878.261 249.201 877.577 246.665 875.824 244.962C874.071 243.259 871.044 242.718 869.162 244.278C868.284 245.006 867.58 246.171 866.44 246.214C864.425 246.291 862.878 242.783 861.257 243.98C861.447 245.257 861.182 246.559 860.508 247.66C855.671 251.862 848.24 250.084 842.003 251.568C839.038 252.416 836.199 253.654 833.561 255.251C832.574 255.672 831.734 256.376 831.148 257.274C830.369 258.785 831.227 260.72 832.6 261.725C834.055 262.616 835.69 263.174 837.387 263.357C844.99 264.795 852.703 267.021 858.706 271.899C864.708 276.776 868.644 284.839 866.745 292.331L851.752 278.022C852.321 284.03 852.645 290.055 852.721 296.096C852.818 297.276 852.656 298.462 852.246 299.572C851.177 301.93 848.28 302.724 845.742 303.244C845.036 303.378 844.366 303.66 843.777 304.071C843.187 304.482 842.692 305.013 842.322 305.628C841.953 306.244 841.718 306.931 841.633 307.644C841.549 308.357 841.616 309.079 841.831 309.764C842.733 312.701 844.981 314.99 847.041 317.271C849.1 319.552 851.126 322.145 851.396 325.204C851.665 328.264 849.354 331.712 846.287 331.5C843.961 331.338 842.236 329.259 841.244 327.152C840.252 325.045 839.662 322.698 838.171 320.907C833.66 315.489 823.528 317.81 819.487 312.033C818.457 313.2 817.742 314.611 817.411 316.131C817.081 317.652 817.145 319.231 817.597 320.72C819.477 319.545 822.051 320.637 823.463 322.345C824.876 324.053 825.542 326.243 826.651 328.161C828.148 330.75 830.53 333.045 830.739 336.027C830.684 337.155 830.703 338.285 830.796 339.41C831.167 341.217 832.696 342.514 833.757 344.024C836.223 347.539 836.102 352.366 834.512 356.354C832.922 360.341 830.065 363.673 827.236 366.903C822.294 372.545 817.251 378.154 811.392 382.84C809.72 384.177 807.936 385.491 806.895 387.36C805.854 389.23 805.801 391.853 807.401 393.275C806.256 393.332 804.203 393.895 803.058 393.952C802.655 389.365 802.568 384.756 802.796 380.157C798.278 377.99 793.414 383.793 793.997 388.764C794.58 393.736 798.18 397.726 800.743 402.027C802.618 405.173 804.011 408.84 803.385 412.447C802.759 416.054 799.536 419.381 795.885 419.063C790.077 418.557 787.648 410.23 781.897 409.277C781.39 409.158 780.858 409.211 780.384 409.427C779.53 409.895 779.382 411.036 779.334 412.007C779.098 416.775 778.895 421.733 780.758 426.128C783.484 432.559 790.527 437.96 789.049 444.786C781.091 441.091 776.953 432.178 775.075 423.615C773.196 415.053 772.883 406.064 769.515 397.97C766.958 401.243 761.583 398.537 759.247 395.103C757.032 391.847 755.668 388.08 753.519 384.781C751.37 381.481 748.078 378.526 744.141 378.345C740.013 378.155 736.433 380.984 733.285 383.657C730.696 385.855 728.038 388.14 726.525 391.179C724.323 395.6 724.899 400.813 724.793 405.751C724.678 411.088 723.546 416.72 719.903 420.628C716.261 424.536 709.538 425.897 705.52 422.375C703.423 420.536 702.407 417.789 701.503 415.152C697.142 402.442 693.511 389.493 690.626 376.37C689.951 379.365 687.318 383.226 684.802 381.461C684.237 380.987 683.78 380.399 683.46 379.735C678.768 371.791 670.078 367.026 661.297 364.169C652.517 361.313 643.279 359.98 634.597 356.84C629.731 355.08 625.083 352.768 620.746 349.949C619.64 351.572 618.994 353.463 618.877 355.422C618.76 357.382 619.175 359.336 620.08 361.079C622.006 364.485 626.364 366.456 630.095 365.265C632.023 364.65 633.651 363.313 635.564 362.653C637.477 361.993 640.045 362.317 640.882 364.158C641.682 365.92 640.472 368.051 641.072 369.891C641.987 372.693 646.218 372.909 647.698 375.459C648.798 377.356 647.893 379.875 646.321 381.406C644.749 382.937 642.652 383.777 640.733 384.842C634.508 388.3 630.08 394.203 624.64 398.795C619.199 403.387 611.523 406.74 605.039 403.794C606.584 395.977 597.261 390.238 595.546 382.456C594.982 379.895 595.274 377.174 594.468 374.678C593.302 371.065 590.092 368.58 587.458 365.841C584.264 362.483 581.776 358.521 580.14 354.187C578.504 349.853 577.754 345.236 577.934 340.608C578.076 337.391 578.668 334.123 577.934 330.988C577.2 327.854 574.602 324.819 571.382 324.962C564.028 325.286 554.763 325.832 550.904 319.571C549.527 317.336 548.928 314.063 550.919 312.35C552.324 311.143 554.397 311.256 556.241 311.438L572.812 313.066C576.687 313.447 580.877 313.761 584.202 311.737C587.528 309.713 588.969 304.342 585.89 301.961C583.64 300.221 579.608 300.316 578.954 297.55C578.41 295.246 580.962 292.633 579.584 290.707C578.595 289.327 576.372 289.71 575.026 290.745C573.679 291.78 572.702 293.293 571.194 294.076C568.55 295.451 565.391 294.143 562.546 293.254C559.701 292.365 555.888 292.289 554.508 294.928C552.965 297.88 555.877 301.747 554.345 304.704C552.321 308.614 545.464 306.388 542.62 309.752C539.357 313.611 544.84 319.366 543.74 324.296C542.335 324.991 540.774 325.31 539.209 325.222C537.643 325.134 536.128 324.643 534.809 323.795C533.513 322.914 532.48 321.699 531.82 320.278C531.16 318.858 530.897 317.285 531.061 315.728C531.333 313.51 532.491 311.246 531.715 309.15C531.088 307.455 529.385 306.447 527.801 305.573L511.699 296.685C510.204 299.455 512.094 302.889 514.458 304.97C516.821 307.05 519.782 308.617 521.335 311.356C522.317 313.253 522.537 315.453 521.95 317.506C521.364 319.56 520.014 321.313 518.177 322.406C517.947 322.565 517.685 322.672 517.409 322.72C517.134 322.768 516.851 322.756 516.581 322.684C516.324 322.533 516.1 322.333 515.922 322.094C515.744 321.855 515.616 321.583 515.546 321.294C512.705 314.032 508.439 306.872 501.619 303.078C494.799 299.285 485 300.065 480.528 306.455C479.466 307.973 478.753 309.703 477.827 311.308C472.911 319.834 462.372 323.871 452.525 323.607C451.561 323.66 450.603 323.436 449.764 322.959C448.173 321.862 448.244 319.532 448.488 317.616L449.522 309.483C449.729 307.85 450.03 306.045 451.324 305.025C453.148 303.588 455.78 304.495 458.103 304.462C459.863 304.379 461.555 303.759 462.95 302.683C464.345 301.608 465.375 300.131 465.901 298.451C466.37 296.755 466.367 294.963 465.892 293.268C465.417 291.574 464.488 290.041 463.205 288.834C462.141 287.835 460.711 286.581 461.274 285.234C461.498 284.862 461.802 284.543 462.163 284.3C462.524 284.057 462.934 283.896 463.363 283.829C467.536 282.618 471.946 282.301 476.049 280.873C480.152 279.445 484.132 276.523 485.103 272.293C485.401 270.996 485.537 269.426 486.703 268.783C487.288 268.537 487.916 268.408 488.551 268.406C490.775 268.09 492.801 266.954 494.229 265.221C495.656 263.487 496.383 261.283 496.265 259.042C498.231 257.67 500.987 258.679 502.889 260.139C504.792 261.599 506.471 263.527 508.786 264.157C513.1 265.329 517.269 261.514 521.74 261.497C523.62 261.489 525.566 262.153 527.335 261.517C529.128 260.871 530.199 259.088 531.575 257.771C532.951 256.454 535.366 255.651 536.637 257.07L535.555 249.064C537.734 249.614 540.006 249.691 542.218 249.292C544.43 248.893 546.53 248.025 548.379 246.748L534.393 242.028C533.906 241.907 533.457 241.667 533.086 241.33C532.069 240.236 533.079 238.532 533.906 237.289C535.883 234.315 536.216 229.416 532.963 227.936C530.743 226.925 528.194 228.138 526.063 229.325L515.856 235.01C515.531 236.948 517.904 238.046 519.374 239.352C520.264 240.141 520.893 241.182 521.18 242.335C521.467 243.489 521.398 244.702 520.982 245.816C520.566 246.93 519.822 247.892 518.849 248.576C517.875 249.26 516.717 249.633 515.527 249.648C516.199 250.521 516.666 251.534 516.893 252.611C517.121 253.689 517.102 254.803 516.84 255.873L509.972 256.366C509.201 256.521 508.4 256.365 507.744 255.932C507.01 255.281 507.109 254.139 506.939 253.172C506.528 250.84 504.241 249.205 501.908 248.786C499.574 248.367 497.186 248.904 494.875 249.434C493.894 249.787 492.817 249.762 491.853 249.365C491.3 249.006 490.88 248.477 490.657 247.857C489.644 245.404 490.591 242.52 492.218 240.421C493.845 238.323 496.072 236.789 498.073 235.042C502.857 230.85 506.372 225.404 508.221 219.321C512.002 217.739 515.916 215.589 519.697 214.007C525.526 211.059 532.063 209.795 538.572 210.354L551.376 210.599C555.167 210.671 559.061 210.764 562.566 212.207C566.071 213.651 569.152 216.773 569.394 220.552C569.467 220.98 569.43 221.419 569.286 221.829C569.142 222.239 568.897 222.605 568.573 222.894C568.077 223.164 567.517 223.29 566.954 223.258C563.418 223.383 561.911 224.262 558.375 224.386Z" fill="#D7D7D7"/>
<path d="M456.318 264.467C456.818 263.994 457.178 263.393 457.358 262.729C457.539 262.065 457.532 261.364 457.34 260.704C456.122 260.234 454.798 260.114 453.516 260.356C452.234 260.597 451.045 261.192 450.083 262.072C449.324 262.839 448.67 263.702 448.138 264.639C446.456 267.381 444.968 270.656 445.943 273.721C446.022 274.055 446.168 274.37 446.371 274.647C446.574 274.925 446.83 275.159 447.125 275.336C447.562 275.511 448.033 275.584 448.503 275.551C450.356 275.549 452.208 275.435 454.048 275.21C455.178 275.072 456.49 274.754 456.927 273.704C457.501 272.324 456.111 270.762 456.516 269.323C456.783 268.68 457.187 268.102 457.7 267.631C457.954 267.393 458.15 267.1 458.271 266.774C458.392 266.448 458.435 266.098 458.397 265.752C458.234 265.077 457.199 264.694 456.826 265.281" fill="#D7D7D7"/>
<path d="M465.929 252.021C464.283 251.644 462.585 251.537 460.904 251.706C460.533 251.695 460.164 251.779 459.834 251.949C459.513 252.185 459.281 252.521 459.174 252.904C458.819 254.042 458.906 255.272 459.418 256.348C459.93 257.425 460.83 258.27 461.937 258.714C462.541 258.852 463.119 259.085 463.651 259.402C465.072 260.503 464.166 262.754 464.436 264.53C464.738 266.525 466.671 268.2 466.316 270.186C466.037 271.75 464.364 272.989 464.633 274.556C464.915 276.196 467 276.689 468.661 276.821C469.624 276.989 470.615 276.876 471.515 276.494C472.417 275.878 473.058 274.95 473.316 273.89C473.996 271.868 474.282 269.734 474.158 267.604C474.15 266.636 473.907 265.683 473.448 264.83C472.948 264.154 472.393 263.519 471.79 262.933C468.606 259.235 471.958 253.718 465.929 252.021Z" fill="#D7D7D7"/>
</g>
</svg>
