<svg width="262" height="262" viewBox="0 0 262 262" fill="none" xmlns="http://www.w3.org/2000/svg">
<g filter="url(#filter0_d_565_1606)">
<circle cx="131" cy="121" r="71" fill="#F9A215"/>
</g>
<path d="M97.1667 98.16V91.8H108.247V121H101.127V98.16H97.1667ZM113.726 106C113.726 101.413 114.606 97.8 116.366 95.16C118.152 92.52 121.019 91.2 124.966 91.2C128.912 91.2 131.766 92.52 133.526 95.16C135.312 97.8 136.206 101.413 136.206 106C136.206 110.64 135.312 114.28 133.526 116.92C131.766 119.56 128.912 120.88 124.966 120.88C121.019 120.88 118.152 119.56 116.366 116.92C114.606 114.28 113.726 110.64 113.726 106ZM129.486 106C129.486 103.307 129.192 101.24 128.606 99.8C128.019 98.3333 126.806 97.6 124.966 97.6C123.126 97.6 121.912 98.3333 121.326 99.8C120.739 101.24 120.446 103.307 120.446 106C120.446 107.813 120.552 109.32 120.766 110.52C120.979 111.693 121.406 112.653 122.046 113.4C122.712 114.12 123.686 114.48 124.966 114.48C126.246 114.48 127.206 114.12 127.846 113.4C128.512 112.653 128.952 111.693 129.166 110.52C129.379 109.32 129.486 107.813 129.486 106ZM140.62 106C140.62 101.413 141.5 97.8 143.26 95.16C145.046 92.52 147.913 91.2 151.86 91.2C155.806 91.2 158.66 92.52 160.42 95.16C162.206 97.8 163.1 101.413 163.1 106C163.1 110.64 162.206 114.28 160.42 116.92C158.66 119.56 155.806 120.88 151.86 120.88C147.913 120.88 145.046 119.56 143.26 116.92C141.5 114.28 140.62 110.64 140.62 106ZM156.38 106C156.38 103.307 156.086 101.24 155.5 99.8C154.913 98.3333 153.7 97.6 151.86 97.6C150.02 97.6 148.806 98.3333 148.22 99.8C147.633 101.24 147.34 103.307 147.34 106C147.34 107.813 147.446 109.32 147.66 110.52C147.873 111.693 148.3 112.653 148.94 113.4C149.606 114.12 150.58 114.48 151.86 114.48C153.14 114.48 154.1 114.12 154.74 113.4C155.406 112.653 155.846 111.693 156.06 110.52C156.273 109.32 156.38 107.813 156.38 106ZM108.675 138.216C107.955 138.216 107.363 138.008 106.899 137.592C106.451 137.16 106.227 136.632 106.227 136.008C106.227 135.368 106.451 134.84 106.899 134.424C107.363 133.992 107.955 133.776 108.675 133.776C109.379 133.776 109.955 133.992 110.403 134.424C110.867 134.84 111.099 135.368 111.099 136.008C111.099 136.632 110.867 137.16 110.403 137.592C109.955 138.008 109.379 138.216 108.675 138.216ZM110.739 154.728C110.739 156.376 110.323 157.56 109.491 158.28C108.659 159.016 107.499 159.384 106.011 159.384H104.403V155.904H105.387C105.835 155.904 106.155 155.816 106.347 155.64C106.539 155.464 106.635 155.176 106.635 154.776V139.608H110.739V154.728ZM127.394 139.608V153H123.29V151.176C122.874 151.768 122.306 152.248 121.586 152.616C120.882 152.968 120.098 153.144 119.234 153.144C118.21 153.144 117.306 152.92 116.522 152.472C115.738 152.008 115.13 151.344 114.698 150.48C114.266 149.616 114.05 148.6 114.05 147.432V139.608H118.13V146.88C118.13 147.776 118.362 148.472 118.826 148.968C119.29 149.464 119.914 149.712 120.698 149.712C121.498 149.712 122.13 149.464 122.594 148.968C123.058 148.472 123.29 147.776 123.29 146.88V139.608H127.394ZM138.286 149.52V153H136.198C134.71 153 133.55 152.64 132.718 151.92C131.886 151.184 131.47 149.992 131.47 148.344V143.016H129.838V139.608H131.47V136.344H135.574V139.608H138.262V143.016H135.574V148.392C135.574 148.792 135.67 149.08 135.862 149.256C136.054 149.432 136.374 149.52 136.822 149.52H138.286ZM140.236 146.28C140.236 144.904 140.492 143.696 141.004 142.656C141.532 141.616 142.244 140.816 143.14 140.256C144.036 139.696 145.036 139.416 146.14 139.416C147.084 139.416 147.908 139.608 148.612 139.992C149.332 140.376 149.884 140.88 150.268 141.504V139.608H154.372V153H150.268V151.104C149.868 151.728 149.308 152.232 148.588 152.616C147.884 153 147.06 153.192 146.116 153.192C145.028 153.192 144.036 152.912 143.14 152.352C142.244 151.776 141.532 150.968 141.004 149.928C140.492 148.872 140.236 147.656 140.236 146.28ZM150.268 146.304C150.268 145.28 149.98 144.472 149.404 143.88C148.844 143.288 148.156 142.992 147.34 142.992C146.524 142.992 145.828 143.288 145.252 143.88C144.692 144.456 144.412 145.256 144.412 146.28C144.412 147.304 144.692 148.12 145.252 148.728C145.828 149.32 146.524 149.616 147.34 149.616C148.156 149.616 148.844 149.32 149.404 148.728C149.98 148.136 150.268 147.328 150.268 146.304Z" fill="white"/>
<defs>
<filter id="filter0_d_565_1606" x="0" y="0" width="262" height="262" filterUnits="userSpaceOnUse" color-interpolation-filters="sRGB">
<feFlood flood-opacity="0" result="BackgroundImageFix"/>
<feColorMatrix in="SourceAlpha" type="matrix" values="0 0 0 0 0 0 0 0 0 0 0 0 0 0 0 0 0 0 127 0" result="hardAlpha"/>
<feOffset dy="10"/>
<feGaussianBlur stdDeviation="30"/>
<feComposite in2="hardAlpha" operator="out"/>
<feColorMatrix type="matrix" values="0 0 0 0 0.976471 0 0 0 0 0.635294 0 0 0 0 0.0823529 0 0 0 0.43 0"/>
<feBlend mode="normal" in2="BackgroundImageFix" result="effect1_dropShadow_565_1606"/>
<feBlend mode="normal" in="SourceGraphic" in2="effect1_dropShadow_565_1606" result="shape"/>
</filter>
</defs>
</svg>
