<svg width="262" height="262" viewBox="0 0 262 262" fill="none" xmlns="http://www.w3.org/2000/svg">
<g filter="url(#filter0_d_565_1634)">
<circle cx="131" cy="121" r="71" fill="#F9A215"/>
</g>
<path d="M90.1558 98.16V91.8H101.236V121H94.1158V98.16H90.1558ZM111.515 105.32C109.008 103.987 107.755 101.893 107.755 99.04C107.755 97.6 108.128 96.2933 108.875 95.12C109.622 93.92 110.755 92.9733 112.275 92.28C113.795 91.56 115.662 91.2 117.875 91.2C120.088 91.2 121.942 91.56 123.435 92.28C124.955 92.9733 126.088 93.92 126.835 95.12C127.582 96.2933 127.955 97.6 127.955 99.04C127.955 100.48 127.608 101.733 126.915 102.8C126.248 103.867 125.342 104.707 124.195 105.32C125.635 106.013 126.742 106.973 127.515 108.2C128.288 109.4 128.675 110.813 128.675 112.44C128.675 114.333 128.195 115.973 127.235 117.36C126.275 118.72 124.968 119.76 123.315 120.48C121.688 121.2 119.875 121.56 117.875 121.56C115.875 121.56 114.048 121.2 112.395 120.48C110.768 119.76 109.475 118.72 108.515 117.36C107.555 115.973 107.075 114.333 107.075 112.44C107.075 110.787 107.462 109.36 108.235 108.16C109.008 106.933 110.102 105.987 111.515 105.32ZM121.315 100.08C121.315 98.9867 120.995 98.1467 120.355 97.56C119.742 96.9467 118.915 96.64 117.875 96.64C116.835 96.64 115.995 96.9467 115.355 97.56C114.742 98.1733 114.435 99.0267 114.435 100.12C114.435 101.16 114.755 101.987 115.395 102.6C116.035 103.187 116.862 103.48 117.875 103.48C118.888 103.48 119.715 103.173 120.355 102.56C120.995 101.947 121.315 101.12 121.315 100.08ZM117.875 108.28C116.622 108.28 115.608 108.627 114.835 109.32C114.062 109.987 113.675 110.92 113.675 112.12C113.675 113.24 114.048 114.16 114.795 114.88C115.568 115.6 116.595 115.96 117.875 115.96C119.155 115.96 120.155 115.6 120.875 114.88C121.622 114.16 121.995 113.24 121.995 112.12C121.995 110.947 121.608 110.013 120.835 109.32C120.088 108.627 119.102 108.28 117.875 108.28ZM141.492 114.68L137.052 126.16H132.692L135.012 114.68H141.492ZM164.377 96.92L154.337 121H147.337L157.497 97.68H145.057V91.84H164.377V96.92ZM109.175 138.216C108.455 138.216 107.863 138.008 107.399 137.592C106.951 137.16 106.727 136.632 106.727 136.008C106.727 135.368 106.951 134.84 107.399 134.424C107.863 133.992 108.455 133.776 109.175 133.776C109.879 133.776 110.455 133.992 110.903 134.424C111.367 134.84 111.599 135.368 111.599 136.008C111.599 136.632 111.367 137.16 110.903 137.592C110.455 138.008 109.879 138.216 109.175 138.216ZM111.239 154.728C111.239 156.376 110.823 157.56 109.991 158.28C109.159 159.016 107.999 159.384 106.511 159.384H104.903V155.904H105.887C106.335 155.904 106.655 155.816 106.847 155.64C107.039 155.464 107.135 155.176 107.135 154.776V139.608H111.239V154.728ZM127.894 139.608V153H123.79V151.176C123.374 151.768 122.806 152.248 122.086 152.616C121.382 152.968 120.598 153.144 119.734 153.144C118.71 153.144 117.806 152.92 117.022 152.472C116.238 152.008 115.63 151.344 115.198 150.48C114.766 149.616 114.55 148.6 114.55 147.432V139.608H118.63V146.88C118.63 147.776 118.862 148.472 119.326 148.968C119.79 149.464 120.414 149.712 121.198 149.712C121.998 149.712 122.63 149.464 123.094 148.968C123.558 148.472 123.79 147.776 123.79 146.88V139.608H127.894ZM138.786 149.52V153H136.698C135.21 153 134.05 152.64 133.218 151.92C132.386 151.184 131.97 149.992 131.97 148.344V143.016H130.338V139.608H131.97V136.344H136.074V139.608H138.762V143.016H136.074V148.392C136.074 148.792 136.17 149.08 136.362 149.256C136.554 149.432 136.874 149.52 137.322 149.52H138.786ZM140.736 146.28C140.736 144.904 140.992 143.696 141.504 142.656C142.032 141.616 142.744 140.816 143.64 140.256C144.536 139.696 145.536 139.416 146.64 139.416C147.584 139.416 148.408 139.608 149.112 139.992C149.832 140.376 150.384 140.88 150.768 141.504V139.608H154.872V153H150.768V151.104C150.368 151.728 149.808 152.232 149.088 152.616C148.384 153 147.56 153.192 146.616 153.192C145.528 153.192 144.536 152.912 143.64 152.352C142.744 151.776 142.032 150.968 141.504 149.928C140.992 148.872 140.736 147.656 140.736 146.28ZM150.768 146.304C150.768 145.28 150.48 144.472 149.904 143.88C149.344 143.288 148.656 142.992 147.84 142.992C147.024 142.992 146.328 143.288 145.752 143.88C145.192 144.456 144.912 145.256 144.912 146.28C144.912 147.304 145.192 148.12 145.752 148.728C146.328 149.32 147.024 149.616 147.84 149.616C148.656 149.616 149.344 149.32 149.904 148.728C150.48 148.136 150.768 147.328 150.768 146.304Z" fill="white"/>
<defs>
<filter id="filter0_d_565_1634" x="0" y="0" width="262" height="262" filterUnits="userSpaceOnUse" color-interpolation-filters="sRGB">
<feFlood flood-opacity="0" result="BackgroundImageFix"/>
<feColorMatrix in="SourceAlpha" type="matrix" values="0 0 0 0 0 0 0 0 0 0 0 0 0 0 0 0 0 0 127 0" result="hardAlpha"/>
<feOffset dy="10"/>
<feGaussianBlur stdDeviation="30"/>
<feComposite in2="hardAlpha" operator="out"/>
<feColorMatrix type="matrix" values="0 0 0 0 0.976471 0 0 0 0 0.635294 0 0 0 0 0.0823529 0 0 0 0.43 0"/>
<feBlend mode="normal" in2="BackgroundImageFix" result="effect1_dropShadow_565_1634"/>
<feBlend mode="normal" in="SourceGraphic" in2="effect1_dropShadow_565_1634" result="shape"/>
</filter>
</defs>
</svg>
