<svg width="262" height="262" viewBox="0 0 262 262" fill="none" xmlns="http://www.w3.org/2000/svg">
<g filter="url(#filter0_d_565_1529)">
<circle cx="131" cy="121" r="71" fill="#F9A215"/>
</g>
<path d="M121.384 97.76H108.904V103.28C109.438 102.693 110.184 102.213 111.144 101.84C112.104 101.467 113.144 101.28 114.264 101.28C116.264 101.28 117.918 101.733 119.224 102.64C120.558 103.547 121.531 104.72 122.144 106.16C122.758 107.6 123.064 109.16 123.064 110.84C123.064 113.96 122.184 116.44 120.424 118.28C118.664 120.093 116.184 121 112.984 121C110.851 121 108.998 120.64 107.424 119.92C105.851 119.173 104.638 118.147 103.784 116.84C102.931 115.533 102.464 114.027 102.384 112.32H109.064C109.224 113.147 109.611 113.84 110.224 114.4C110.838 114.933 111.678 115.2 112.744 115.2C113.998 115.2 114.931 114.8 115.544 114C116.158 113.2 116.464 112.133 116.464 110.8C116.464 109.493 116.144 108.493 115.504 107.8C114.864 107.107 113.931 106.76 112.704 106.76C111.798 106.76 111.051 106.987 110.464 107.44C109.878 107.867 109.491 108.44 109.304 109.16H102.704V91.76H121.384V97.76ZM135.68 114.68L131.24 126.16H126.88L129.2 114.68H135.68ZM139.684 115.52C140.591 114.8 141.004 114.467 140.924 114.52C143.538 112.36 145.591 110.587 147.084 109.2C148.604 107.813 149.884 106.36 150.924 104.84C151.964 103.32 152.484 101.84 152.484 100.4C152.484 99.3067 152.231 98.4533 151.724 97.84C151.218 97.2267 150.458 96.92 149.444 96.92C148.431 96.92 147.631 97.3067 147.044 98.08C146.484 98.8267 146.204 99.8933 146.204 101.28H139.604C139.658 99.0133 140.138 97.12 141.044 95.6C141.978 94.08 143.191 92.96 144.684 92.24C146.204 91.52 147.884 91.16 149.724 91.16C152.898 91.16 155.284 91.9733 156.884 93.6C158.511 95.2267 159.324 97.3467 159.324 99.96C159.324 102.813 158.351 105.467 156.404 107.92C154.458 110.347 151.978 112.72 148.964 115.04H159.764V120.6H139.684V115.52ZM108.175 138.216C107.455 138.216 106.863 138.008 106.399 137.592C105.951 137.16 105.727 136.632 105.727 136.008C105.727 135.368 105.951 134.84 106.399 134.424C106.863 133.992 107.455 133.776 108.175 133.776C108.879 133.776 109.455 133.992 109.903 134.424C110.367 134.84 110.599 135.368 110.599 136.008C110.599 136.632 110.367 137.16 109.903 137.592C109.455 138.008 108.879 138.216 108.175 138.216ZM110.239 154.728C110.239 156.376 109.823 157.56 108.991 158.28C108.159 159.016 106.999 159.384 105.511 159.384H103.903V155.904H104.887C105.335 155.904 105.655 155.816 105.847 155.64C106.039 155.464 106.135 155.176 106.135 154.776V139.608H110.239V154.728ZM126.894 139.608V153H122.79V151.176C122.374 151.768 121.806 152.248 121.086 152.616C120.382 152.968 119.598 153.144 118.734 153.144C117.71 153.144 116.806 152.92 116.022 152.472C115.238 152.008 114.63 151.344 114.198 150.48C113.766 149.616 113.55 148.6 113.55 147.432V139.608H117.63V146.88C117.63 147.776 117.862 148.472 118.326 148.968C118.79 149.464 119.414 149.712 120.198 149.712C120.998 149.712 121.63 149.464 122.094 148.968C122.558 148.472 122.79 147.776 122.79 146.88V139.608H126.894ZM137.786 149.52V153H135.698C134.21 153 133.05 152.64 132.218 151.92C131.386 151.184 130.97 149.992 130.97 148.344V143.016H129.338V139.608H130.97V136.344H135.074V139.608H137.762V143.016H135.074V148.392C135.074 148.792 135.17 149.08 135.362 149.256C135.554 149.432 135.874 149.52 136.322 149.52H137.786ZM139.736 146.28C139.736 144.904 139.992 143.696 140.504 142.656C141.032 141.616 141.744 140.816 142.64 140.256C143.536 139.696 144.536 139.416 145.64 139.416C146.584 139.416 147.408 139.608 148.112 139.992C148.832 140.376 149.384 140.88 149.768 141.504V139.608H153.872V153H149.768V151.104C149.368 151.728 148.808 152.232 148.088 152.616C147.384 153 146.56 153.192 145.616 153.192C144.528 153.192 143.536 152.912 142.64 152.352C141.744 151.776 141.032 150.968 140.504 149.928C139.992 148.872 139.736 147.656 139.736 146.28ZM149.768 146.304C149.768 145.28 149.48 144.472 148.904 143.88C148.344 143.288 147.656 142.992 146.84 142.992C146.024 142.992 145.328 143.288 144.752 143.88C144.192 144.456 143.912 145.256 143.912 146.28C143.912 147.304 144.192 148.12 144.752 148.728C145.328 149.32 146.024 149.616 146.84 149.616C147.656 149.616 148.344 149.32 148.904 148.728C149.48 148.136 149.768 147.328 149.768 146.304Z" fill="white"/>
<defs>
<filter id="filter0_d_565_1529" x="0" y="0" width="262" height="262" filterUnits="userSpaceOnUse" color-interpolation-filters="sRGB">
<feFlood flood-opacity="0" result="BackgroundImageFix"/>
<feColorMatrix in="SourceAlpha" type="matrix" values="0 0 0 0 0 0 0 0 0 0 0 0 0 0 0 0 0 0 127 0" result="hardAlpha"/>
<feOffset dy="10"/>
<feGaussianBlur stdDeviation="30"/>
<feComposite in2="hardAlpha" operator="out"/>
<feColorMatrix type="matrix" values="0 0 0 0 0.976471 0 0 0 0 0.635294 0 0 0 0 0.0823529 0 0 0 0.43 0"/>
<feBlend mode="normal" in2="BackgroundImageFix" result="effect1_dropShadow_565_1529"/>
<feBlend mode="normal" in="SourceGraphic" in2="effect1_dropShadow_565_1529" result="shape"/>
</filter>
</defs>
</svg>
