<svg width="262" height="262" viewBox="0 0 262 262" fill="none" xmlns="http://www.w3.org/2000/svg">
<g filter="url(#filter0_d_565_1669)">
<circle cx="131" cy="121" r="71" fill="#F9A215"/>
</g>
<path d="M92.1194 129.8V124.28L104.759 106.2H112.399V123.88H115.679V129.8H112.399V135H105.559V129.8H92.1194ZM106.039 113.72L99.3194 123.88H106.039V113.72ZM119.59 129.52C120.496 128.8 120.91 128.467 120.83 128.52C123.443 126.36 125.496 124.587 126.99 123.2C128.51 121.813 129.79 120.36 130.83 118.84C131.87 117.32 132.39 115.84 132.39 114.4C132.39 113.307 132.136 112.453 131.63 111.84C131.123 111.227 130.363 110.92 129.35 110.92C128.336 110.92 127.536 111.307 126.95 112.08C126.39 112.827 126.11 113.893 126.11 115.28H119.51C119.563 113.013 120.043 111.12 120.95 109.6C121.883 108.08 123.096 106.96 124.59 106.24C126.11 105.52 127.79 105.16 129.63 105.16C132.803 105.16 135.19 105.973 136.79 107.6C138.416 109.227 139.23 111.347 139.23 113.96C139.23 116.813 138.256 119.467 136.31 121.92C134.363 124.347 131.883 126.72 128.87 129.04H139.67V134.6H119.59V129.52ZM151.702 121.896C151.702 120.6 152.07 119.6 152.806 118.896C153.558 118.192 154.526 117.84 155.71 117.84C156.894 117.84 157.854 118.192 158.59 118.896C159.326 119.6 159.694 120.6 159.694 121.896C159.694 123.192 159.326 124.192 158.59 124.896C157.854 125.6 156.894 125.952 155.71 125.952C154.526 125.952 153.558 125.6 152.806 124.896C152.07 124.192 151.702 123.192 151.702 121.896ZM167.998 118.104L158.758 135H154.798L164.038 118.104H167.998ZM155.686 120.24C154.918 120.24 154.534 120.792 154.534 121.896C154.534 122.984 154.918 123.528 155.686 123.528C156.054 123.528 156.342 123.392 156.55 123.12C156.758 122.848 156.862 122.44 156.862 121.896C156.862 120.792 156.47 120.24 155.686 120.24ZM163.126 131.208C163.126 129.912 163.494 128.912 164.23 128.208C164.966 127.504 165.926 127.152 167.11 127.152C168.294 127.152 169.254 127.504 169.99 128.208C170.726 128.912 171.094 129.912 171.094 131.208C171.094 132.504 170.726 133.504 169.99 134.208C169.254 134.912 168.294 135.264 167.11 135.264C165.926 135.264 164.966 134.912 164.23 134.208C163.494 133.504 163.126 132.504 163.126 131.208ZM167.086 129.552C166.718 129.552 166.43 129.688 166.222 129.96C166.03 130.232 165.934 130.648 165.934 131.208C165.934 132.296 166.318 132.84 167.086 132.84C167.454 132.84 167.742 132.704 167.95 132.432C168.158 132.16 168.262 131.752 168.262 131.208C168.262 130.664 168.158 130.256 167.95 129.984C167.742 129.696 167.454 129.552 167.086 129.552Z" fill="white"/>
<defs>
<filter id="filter0_d_565_1669" x="0" y="0" width="262" height="262" filterUnits="userSpaceOnUse" color-interpolation-filters="sRGB">
<feFlood flood-opacity="0" result="BackgroundImageFix"/>
<feColorMatrix in="SourceAlpha" type="matrix" values="0 0 0 0 0 0 0 0 0 0 0 0 0 0 0 0 0 0 127 0" result="hardAlpha"/>
<feOffset dy="10"/>
<feGaussianBlur stdDeviation="30"/>
<feComposite in2="hardAlpha" operator="out"/>
<feColorMatrix type="matrix" values="0 0 0 0 0.976471 0 0 0 0 0.635294 0 0 0 0 0.0823529 0 0 0 0.43 0"/>
<feBlend mode="normal" in2="BackgroundImageFix" result="effect1_dropShadow_565_1669"/>
<feBlend mode="normal" in="SourceGraphic" in2="effect1_dropShadow_565_1669" result="shape"/>
</filter>
</defs>
</svg>
