<svg width="262" height="262" viewBox="0 0 262 262" fill="none" xmlns="http://www.w3.org/2000/svg">
<g filter="url(#filter0_d_590_1923)">
<circle cx="131" cy="121" r="71" fill="#F9A215"/>
</g>
<path d="M126.855 112.44C127.255 114.547 128.482 115.6 130.535 115.6C131.949 115.6 132.949 114.973 133.535 113.72C134.122 112.467 134.415 110.427 134.415 107.6C133.829 108.427 133.029 109.067 132.015 109.52C131.002 109.973 129.869 110.2 128.615 110.2C126.909 110.2 125.389 109.853 124.055 109.16C122.722 108.44 121.669 107.387 120.895 106C120.149 104.587 119.775 102.88 119.775 100.88C119.775 98.9067 120.175 97.1867 120.975 95.72C121.802 94.2533 122.962 93.12 124.455 92.32C125.975 91.52 127.762 91.12 129.815 91.12C133.762 91.12 136.522 92.3467 138.095 94.8C139.669 97.2533 140.455 100.867 140.455 105.64C140.455 109.107 140.135 111.973 139.495 114.24C138.882 116.48 137.829 118.187 136.335 119.36C134.869 120.533 132.855 121.12 130.295 121.12C128.269 121.12 126.535 120.72 125.095 119.92C123.682 119.12 122.589 118.067 121.815 116.76C121.069 115.453 120.642 114.013 120.535 112.44H126.855ZM130.175 104.8C131.295 104.8 132.189 104.467 132.855 103.8C133.522 103.107 133.855 102.173 133.855 101C133.855 99.72 133.509 98.7333 132.815 98.04C132.122 97.3467 131.189 97 130.015 97C128.842 97 127.909 97.36 127.215 98.08C126.549 98.7733 126.215 99.7333 126.215 100.96C126.215 102.107 126.549 103.04 127.215 103.76C127.909 104.453 128.895 104.8 130.175 104.8ZM98.632 141.504C99.016 140.88 99.568 140.376 100.288 139.992C101.008 139.608 101.832 139.416 102.76 139.416C103.864 139.416 104.864 139.696 105.76 140.256C106.656 140.816 107.36 141.616 107.872 142.656C108.4 143.696 108.664 144.904 108.664 146.28C108.664 147.656 108.4 148.872 107.872 149.928C107.36 150.968 106.656 151.776 105.76 152.352C104.864 152.912 103.864 153.192 102.76 153.192C101.816 153.192 100.992 153.008 100.288 152.64C99.584 152.256 99.032 151.752 98.632 151.128V153H94.528V135.24H98.632V141.504ZM104.488 146.28C104.488 145.256 104.2 144.456 103.624 143.88C103.064 143.288 102.368 142.992 101.536 142.992C100.72 142.992 100.024 143.288 99.448 143.88C98.888 144.472 98.608 145.28 98.608 146.304C98.608 147.328 98.888 148.136 99.448 148.728C100.024 149.32 100.72 149.616 101.536 149.616C102.352 149.616 103.048 149.32 103.624 148.728C104.2 148.12 104.488 147.304 104.488 146.28ZM124.521 139.608V153H120.417V151.176C120.001 151.768 119.433 152.248 118.713 152.616C118.009 152.968 117.225 153.144 116.361 153.144C115.337 153.144 114.433 152.92 113.649 152.472C112.865 152.008 112.257 151.344 111.825 150.48C111.393 149.616 111.177 148.6 111.177 147.432V139.608H115.257V146.88C115.257 147.776 115.489 148.472 115.953 148.968C116.417 149.464 117.041 149.712 117.825 149.712C118.625 149.712 119.257 149.464 119.721 148.968C120.185 148.472 120.417 147.776 120.417 146.88V139.608H124.521ZM132.053 135.24V153H127.949V135.24H132.053ZM134.691 146.28C134.691 144.904 134.947 143.696 135.459 142.656C135.987 141.616 136.699 140.816 137.595 140.256C138.491 139.696 139.491 139.416 140.595 139.416C141.539 139.416 142.363 139.608 143.067 139.992C143.787 140.376 144.339 140.88 144.723 141.504V139.608H148.827V153H144.723V151.104C144.323 151.728 143.763 152.232 143.043 152.616C142.339 153 141.515 153.192 140.571 153.192C139.483 153.192 138.491 152.912 137.595 152.352C136.699 151.776 135.987 150.968 135.459 149.928C134.947 148.872 134.691 147.656 134.691 146.28ZM144.723 146.304C144.723 145.28 144.435 144.472 143.859 143.88C143.299 143.288 142.611 142.992 141.795 142.992C140.979 142.992 140.283 143.288 139.707 143.88C139.147 144.456 138.867 145.256 138.867 146.28C138.867 147.304 139.147 148.12 139.707 148.728C140.283 149.32 140.979 149.616 141.795 149.616C142.611 149.616 143.299 149.32 143.859 148.728C144.435 148.136 144.723 147.328 144.723 146.304ZM160.436 139.464C162.004 139.464 163.252 139.976 164.18 141C165.124 142.008 165.596 143.4 165.596 145.176V153H161.516V145.728C161.516 144.832 161.284 144.136 160.82 143.64C160.356 143.144 159.732 142.896 158.948 142.896C158.164 142.896 157.54 143.144 157.076 143.64C156.612 144.136 156.38 144.832 156.38 145.728V153H152.276V139.608H156.38V141.384C156.796 140.792 157.356 140.328 158.06 139.992C158.764 139.64 159.556 139.464 160.436 139.464Z" fill="white"/>
<defs>
<filter id="filter0_d_590_1923" x="0" y="0" width="262" height="262" filterUnits="userSpaceOnUse" color-interpolation-filters="sRGB">
<feFlood flood-opacity="0" result="BackgroundImageFix"/>
<feColorMatrix in="SourceAlpha" type="matrix" values="0 0 0 0 0 0 0 0 0 0 0 0 0 0 0 0 0 0 127 0" result="hardAlpha"/>
<feOffset dy="10"/>
<feGaussianBlur stdDeviation="30"/>
<feComposite in2="hardAlpha" operator="out"/>
<feColorMatrix type="matrix" values="0 0 0 0 0.976471 0 0 0 0 0.635294 0 0 0 0 0.0823529 0 0 0 0.43 0"/>
<feBlend mode="normal" in2="BackgroundImageFix" result="effect1_dropShadow_590_1923"/>
<feBlend mode="normal" in="SourceGraphic" in2="effect1_dropShadow_590_1923" result="shape"/>
</filter>
</defs>
</svg>
