<svg width="262" height="262" viewBox="0 0 262 262" fill="none" xmlns="http://www.w3.org/2000/svg">
<g filter="url(#filter0_d_565_1592)">
<circle cx="131" cy="121" r="71" fill="#F9A215"/>
</g>
<path d="M110.653 98.16V91.8H121.733V121H114.613V98.16H110.653ZM147.772 97.76H135.292V103.28C135.825 102.693 136.572 102.213 137.532 101.84C138.492 101.467 139.532 101.28 140.652 101.28C142.652 101.28 144.305 101.733 145.612 102.64C146.945 103.547 147.918 104.72 148.532 106.16C149.145 107.6 149.452 109.16 149.452 110.84C149.452 113.96 148.572 116.44 146.812 118.28C145.052 120.093 142.572 121 139.372 121C137.238 121 135.385 120.64 133.812 119.92C132.238 119.173 131.025 118.147 130.172 116.84C129.318 115.533 128.852 114.027 128.772 112.32H135.452C135.612 113.147 135.998 113.84 136.612 114.4C137.225 114.933 138.065 115.2 139.132 115.2C140.385 115.2 141.318 114.8 141.932 114C142.545 113.2 142.852 112.133 142.852 110.8C142.852 109.493 142.532 108.493 141.892 107.8C141.252 107.107 140.318 106.76 139.092 106.76C138.185 106.76 137.438 106.987 136.852 107.44C136.265 107.867 135.878 108.44 135.692 109.16H129.092V91.76H147.772V97.76ZM108.675 138.216C107.955 138.216 107.363 138.008 106.899 137.592C106.451 137.16 106.227 136.632 106.227 136.008C106.227 135.368 106.451 134.84 106.899 134.424C107.363 133.992 107.955 133.776 108.675 133.776C109.379 133.776 109.955 133.992 110.403 134.424C110.867 134.84 111.099 135.368 111.099 136.008C111.099 136.632 110.867 137.16 110.403 137.592C109.955 138.008 109.379 138.216 108.675 138.216ZM110.739 154.728C110.739 156.376 110.323 157.56 109.491 158.28C108.659 159.016 107.499 159.384 106.011 159.384H104.403V155.904H105.387C105.835 155.904 106.155 155.816 106.347 155.64C106.539 155.464 106.635 155.176 106.635 154.776V139.608H110.739V154.728ZM127.394 139.608V153H123.29V151.176C122.874 151.768 122.306 152.248 121.586 152.616C120.882 152.968 120.098 153.144 119.234 153.144C118.21 153.144 117.306 152.92 116.522 152.472C115.738 152.008 115.13 151.344 114.698 150.48C114.266 149.616 114.05 148.6 114.05 147.432V139.608H118.13V146.88C118.13 147.776 118.362 148.472 118.826 148.968C119.29 149.464 119.914 149.712 120.698 149.712C121.498 149.712 122.13 149.464 122.594 148.968C123.058 148.472 123.29 147.776 123.29 146.88V139.608H127.394ZM138.286 149.52V153H136.198C134.71 153 133.55 152.64 132.718 151.92C131.886 151.184 131.47 149.992 131.47 148.344V143.016H129.838V139.608H131.47V136.344H135.574V139.608H138.262V143.016H135.574V148.392C135.574 148.792 135.67 149.08 135.862 149.256C136.054 149.432 136.374 149.52 136.822 149.52H138.286ZM140.236 146.28C140.236 144.904 140.492 143.696 141.004 142.656C141.532 141.616 142.244 140.816 143.14 140.256C144.036 139.696 145.036 139.416 146.14 139.416C147.084 139.416 147.908 139.608 148.612 139.992C149.332 140.376 149.884 140.88 150.268 141.504V139.608H154.372V153H150.268V151.104C149.868 151.728 149.308 152.232 148.588 152.616C147.884 153 147.06 153.192 146.116 153.192C145.028 153.192 144.036 152.912 143.14 152.352C142.244 151.776 141.532 150.968 141.004 149.928C140.492 148.872 140.236 147.656 140.236 146.28ZM150.268 146.304C150.268 145.28 149.98 144.472 149.404 143.88C148.844 143.288 148.156 142.992 147.34 142.992C146.524 142.992 145.828 143.288 145.252 143.88C144.692 144.456 144.412 145.256 144.412 146.28C144.412 147.304 144.692 148.12 145.252 148.728C145.828 149.32 146.524 149.616 147.34 149.616C148.156 149.616 148.844 149.32 149.404 148.728C149.98 148.136 150.268 147.328 150.268 146.304Z" fill="white"/>
<defs>
<filter id="filter0_d_565_1592" x="0" y="0" width="262" height="262" filterUnits="userSpaceOnUse" color-interpolation-filters="sRGB">
<feFlood flood-opacity="0" result="BackgroundImageFix"/>
<feColorMatrix in="SourceAlpha" type="matrix" values="0 0 0 0 0 0 0 0 0 0 0 0 0 0 0 0 0 0 127 0" result="hardAlpha"/>
<feOffset dy="10"/>
<feGaussianBlur stdDeviation="30"/>
<feComposite in2="hardAlpha" operator="out"/>
<feColorMatrix type="matrix" values="0 0 0 0 0.976471 0 0 0 0 0.635294 0 0 0 0 0.0823529 0 0 0 0.43 0"/>
<feBlend mode="normal" in2="BackgroundImageFix" result="effect1_dropShadow_565_1592"/>
<feBlend mode="normal" in="SourceGraphic" in2="effect1_dropShadow_565_1592" result="shape"/>
</filter>
</defs>
</svg>
