<svg width="262" height="262" viewBox="0 0 262 262" fill="none" xmlns="http://www.w3.org/2000/svg">
<g filter="url(#filter0_d_565_1662)">
<circle cx="131" cy="121" r="71" fill="#F9A215"/>
</g>
<path d="M90.1136 118.12V123.8H72.5136V118.12H90.1136ZM116.797 111.76H104.317V117.28C104.85 116.693 105.597 116.213 106.557 115.84C107.517 115.467 108.557 115.28 109.677 115.28C111.677 115.28 113.33 115.733 114.637 116.64C115.97 117.547 116.943 118.72 117.557 120.16C118.17 121.6 118.477 123.16 118.477 124.84C118.477 127.96 117.597 130.44 115.837 132.28C114.077 134.093 111.597 135 108.397 135C106.263 135 104.41 134.64 102.837 133.92C101.263 133.173 100.05 132.147 99.1967 130.84C98.3434 129.533 97.8767 128.027 97.7967 126.32H104.477C104.637 127.147 105.023 127.84 105.637 128.4C106.25 128.933 107.09 129.2 108.157 129.2C109.41 129.2 110.343 128.8 110.957 128C111.57 127.2 111.877 126.133 111.877 124.8C111.877 123.493 111.557 122.493 110.917 121.8C110.277 121.107 109.343 120.76 108.117 120.76C107.21 120.76 106.463 120.987 105.877 121.44C105.29 121.867 104.903 122.44 104.717 123.16H98.1167V105.76H116.797V111.76ZM131.092 128.68L126.652 140.16H122.292L124.612 128.68H131.092ZM135.497 129.8V124.28L148.137 106.2H155.777V123.88H159.057V129.8H155.777V135H148.937V129.8H135.497ZM149.417 113.72L142.697 123.88H149.417V113.72ZM171.428 121.896C171.428 120.6 171.796 119.6 172.532 118.896C173.284 118.192 174.252 117.84 175.436 117.84C176.62 117.84 177.58 118.192 178.316 118.896C179.052 119.6 179.42 120.6 179.42 121.896C179.42 123.192 179.052 124.192 178.316 124.896C177.58 125.6 176.62 125.952 175.436 125.952C174.252 125.952 173.284 125.6 172.532 124.896C171.796 124.192 171.428 123.192 171.428 121.896ZM187.724 118.104L178.484 135H174.524L183.764 118.104H187.724ZM175.412 120.24C174.644 120.24 174.26 120.792 174.26 121.896C174.26 122.984 174.644 123.528 175.412 123.528C175.78 123.528 176.068 123.392 176.276 123.12C176.484 122.848 176.588 122.44 176.588 121.896C176.588 120.792 176.196 120.24 175.412 120.24ZM182.852 131.208C182.852 129.912 183.22 128.912 183.956 128.208C184.692 127.504 185.652 127.152 186.836 127.152C188.02 127.152 188.98 127.504 189.716 128.208C190.452 128.912 190.82 129.912 190.82 131.208C190.82 132.504 190.452 133.504 189.716 134.208C188.98 134.912 188.02 135.264 186.836 135.264C185.652 135.264 184.692 134.912 183.956 134.208C183.22 133.504 182.852 132.504 182.852 131.208ZM186.812 129.552C186.444 129.552 186.156 129.688 185.948 129.96C185.756 130.232 185.66 130.648 185.66 131.208C185.66 132.296 186.044 132.84 186.812 132.84C187.18 132.84 187.468 132.704 187.676 132.432C187.884 132.16 187.988 131.752 187.988 131.208C187.988 130.664 187.884 130.256 187.676 129.984C187.468 129.696 187.18 129.552 186.812 129.552Z" fill="white"/>
<defs>
<filter id="filter0_d_565_1662" x="0" y="0" width="262" height="262" filterUnits="userSpaceOnUse" color-interpolation-filters="sRGB">
<feFlood flood-opacity="0" result="BackgroundImageFix"/>
<feColorMatrix in="SourceAlpha" type="matrix" values="0 0 0 0 0 0 0 0 0 0 0 0 0 0 0 0 0 0 127 0" result="hardAlpha"/>
<feOffset dy="10"/>
<feGaussianBlur stdDeviation="30"/>
<feComposite in2="hardAlpha" operator="out"/>
<feColorMatrix type="matrix" values="0 0 0 0 0.976471 0 0 0 0 0.635294 0 0 0 0 0.0823529 0 0 0 0.43 0"/>
<feBlend mode="normal" in2="BackgroundImageFix" result="effect1_dropShadow_565_1662"/>
<feBlend mode="normal" in="SourceGraphic" in2="effect1_dropShadow_565_1662" result="shape"/>
</filter>
</defs>
</svg>
