<svg width="262" height="262" viewBox="0 0 262 262" fill="none" xmlns="http://www.w3.org/2000/svg">
<g filter="url(#filter0_d_565_1641)">
<circle cx="131" cy="121" r="71" fill="#F9A215"/>
</g>
<path d="M88.2442 112.32L89.5883 114.768L86.6362 115.8L89.5883 116.808L88.1483 119.352L85.7482 117.24L86.3482 120.36H83.5402L84.1163 117.24L81.7402 119.376L80.2522 116.784L83.2042 115.752L80.2762 114.792L81.6442 112.32L84.1403 114.408L83.5162 111.24H86.3723L85.7482 114.408L88.2442 112.32ZM104.449 117.48C104.145 116.92 103.705 116.496 103.129 116.208C102.569 115.904 101.905 115.752 101.137 115.752C99.8086 115.752 98.7446 116.192 97.9446 117.072C97.1446 117.936 96.7446 119.096 96.7446 120.552C96.7446 122.104 97.1606 123.32 97.9926 124.2C98.8406 125.064 100.001 125.496 101.473 125.496C102.481 125.496 103.329 125.24 104.017 124.728C104.721 124.216 105.233 123.48 105.553 122.52H100.345V119.496H109.273V123.312C108.969 124.336 108.449 125.288 107.713 126.168C106.993 127.048 106.073 127.76 104.953 128.304C103.833 128.848 102.569 129.12 101.161 129.12C99.4966 129.12 98.0086 128.76 96.6966 128.04C95.4006 127.304 94.3846 126.288 93.6486 124.992C92.9286 123.696 92.5686 122.216 92.5686 120.552C92.5686 118.888 92.9286 117.408 93.6486 116.112C94.3846 114.8 95.4006 113.784 96.6966 113.064C97.9926 112.328 99.4726 111.96 101.137 111.96C103.153 111.96 104.849 112.448 106.225 113.424C107.617 114.4 108.537 115.752 108.985 117.48H104.449ZM116.13 117.84C116.61 117.104 117.21 116.528 117.93 116.112C118.65 115.68 119.45 115.464 120.33 115.464V119.808H119.202C118.178 119.808 117.41 120.032 116.898 120.48C116.386 120.912 116.13 121.68 116.13 122.784V129H112.026V115.608H116.13V117.84ZM121.955 122.28C121.955 120.904 122.211 119.696 122.723 118.656C123.251 117.616 123.963 116.816 124.859 116.256C125.755 115.696 126.755 115.416 127.859 115.416C128.803 115.416 129.627 115.608 130.331 115.992C131.051 116.376 131.603 116.88 131.987 117.504V115.608H136.091V129H131.987V127.104C131.587 127.728 131.027 128.232 130.307 128.616C129.603 129 128.779 129.192 127.835 129.192C126.747 129.192 125.755 128.912 124.859 128.352C123.963 127.776 123.251 126.968 122.723 125.928C122.211 124.872 121.955 123.656 121.955 122.28ZM131.987 122.304C131.987 121.28 131.699 120.472 131.123 119.88C130.563 119.288 129.875 118.992 129.059 118.992C128.243 118.992 127.547 119.288 126.971 119.88C126.411 120.456 126.131 121.256 126.131 122.28C126.131 123.304 126.411 124.12 126.971 124.728C127.547 125.32 128.243 125.616 129.059 125.616C129.875 125.616 130.563 125.32 131.123 124.728C131.699 124.136 131.987 123.328 131.987 122.304ZM147.004 125.52V129H144.916C143.428 129 142.268 128.64 141.436 127.92C140.604 127.184 140.188 125.992 140.188 124.344V119.016H138.556V115.608H140.188V112.344H144.292V115.608H146.98V119.016H144.292V124.392C144.292 124.792 144.388 125.08 144.58 125.256C144.772 125.432 145.092 125.52 145.54 125.52H147.004ZM151.835 114.216C151.115 114.216 150.523 114.008 150.059 113.592C149.611 113.16 149.387 112.632 149.387 112.008C149.387 111.368 149.611 110.84 150.059 110.424C150.523 109.992 151.115 109.776 151.835 109.776C152.539 109.776 153.115 109.992 153.563 110.424C154.027 110.84 154.259 111.368 154.259 112.008C154.259 112.632 154.027 113.16 153.563 113.592C153.115 114.008 152.539 114.216 151.835 114.216ZM153.875 115.608V129H149.771V115.608H153.875ZM162.777 129.192C161.609 129.192 160.569 128.992 159.657 128.592C158.745 128.192 158.025 127.648 157.497 126.96C156.969 126.256 156.673 125.472 156.609 124.608H160.665C160.713 125.072 160.929 125.448 161.313 125.736C161.697 126.024 162.169 126.168 162.729 126.168C163.241 126.168 163.633 126.072 163.905 125.88C164.193 125.672 164.337 125.408 164.337 125.088C164.337 124.704 164.137 124.424 163.737 124.248C163.337 124.056 162.689 123.848 161.793 123.624C160.833 123.4 160.033 123.168 159.393 122.928C158.753 122.672 158.201 122.28 157.737 121.752C157.273 121.208 157.041 120.48 157.041 119.568C157.041 118.8 157.249 118.104 157.665 117.48C158.097 116.84 158.721 116.336 159.537 115.968C160.369 115.6 161.353 115.416 162.489 115.416C164.169 115.416 165.489 115.832 166.449 116.664C167.425 117.496 167.985 118.6 168.129 119.976H164.337C164.273 119.512 164.065 119.144 163.713 118.872C163.377 118.6 162.929 118.464 162.369 118.464C161.889 118.464 161.521 118.56 161.265 118.752C161.009 118.928 160.881 119.176 160.881 119.496C160.881 119.88 161.081 120.168 161.481 120.36C161.897 120.552 162.537 120.744 163.401 120.936C164.393 121.192 165.201 121.448 165.825 121.704C166.449 121.944 166.993 122.344 167.457 122.904C167.937 123.448 168.185 124.184 168.201 125.112C168.201 125.896 167.977 126.6 167.529 127.224C167.097 127.832 166.465 128.312 165.633 128.664C164.817 129.016 163.865 129.192 162.777 129.192ZM179.471 112.32L180.815 114.768L177.863 115.8L180.815 116.808L179.375 119.352L176.975 117.24L177.575 120.36H174.767L175.343 117.24L172.967 119.376L171.479 116.784L174.431 115.752L171.503 114.792L172.871 112.32L175.367 114.408L174.743 111.24H177.599L176.975 114.408L179.471 112.32Z" fill="white"/>
<defs>
<filter id="filter0_d_565_1641" x="0" y="0" width="262" height="262" filterUnits="userSpaceOnUse" color-interpolation-filters="sRGB">
<feFlood flood-opacity="0" result="BackgroundImageFix"/>
<feColorMatrix in="SourceAlpha" type="matrix" values="0 0 0 0 0 0 0 0 0 0 0 0 0 0 0 0 0 0 127 0" result="hardAlpha"/>
<feOffset dy="10"/>
<feGaussianBlur stdDeviation="30"/>
<feComposite in2="hardAlpha" operator="out"/>
<feColorMatrix type="matrix" values="0 0 0 0 0.976471 0 0 0 0 0.635294 0 0 0 0 0.0823529 0 0 0 0.43 0"/>
<feBlend mode="normal" in2="BackgroundImageFix" result="effect1_dropShadow_565_1641"/>
<feBlend mode="normal" in="SourceGraphic" in2="effect1_dropShadow_565_1641" result="shape"/>
</filter>
</defs>
</svg>
