<svg width="262" height="262" viewBox="0 0 262 262" fill="none" xmlns="http://www.w3.org/2000/svg">
<g filter="url(#filter0_d_565_1591)">
<circle cx="131" cy="121" r="71" fill="#F9A215"/>
</g>
<path d="M99.3475 115.8V110.28L111.988 92.2H119.628V109.88H122.908V115.8H119.628V121H112.788V115.8H99.3475ZM113.268 99.72L106.548 109.88H113.268V99.72ZM135.098 114.68L130.658 126.16H126.298L128.618 114.68H135.098ZM139.502 115.8V110.28L152.142 92.2H159.782V109.88H163.062V115.8H159.782V121H152.942V115.8H139.502ZM153.422 99.72L146.702 109.88H153.422V99.72ZM109.175 138.216C108.455 138.216 107.863 138.008 107.399 137.592C106.951 137.16 106.727 136.632 106.727 136.008C106.727 135.368 106.951 134.84 107.399 134.424C107.863 133.992 108.455 133.776 109.175 133.776C109.879 133.776 110.455 133.992 110.903 134.424C111.367 134.84 111.599 135.368 111.599 136.008C111.599 136.632 111.367 137.16 110.903 137.592C110.455 138.008 109.879 138.216 109.175 138.216ZM111.239 154.728C111.239 156.376 110.823 157.56 109.991 158.28C109.159 159.016 107.999 159.384 106.511 159.384H104.903V155.904H105.887C106.335 155.904 106.655 155.816 106.847 155.64C107.039 155.464 107.135 155.176 107.135 154.776V139.608H111.239V154.728ZM127.894 139.608V153H123.79V151.176C123.374 151.768 122.806 152.248 122.086 152.616C121.382 152.968 120.598 153.144 119.734 153.144C118.71 153.144 117.806 152.92 117.022 152.472C116.238 152.008 115.63 151.344 115.198 150.48C114.766 149.616 114.55 148.6 114.55 147.432V139.608H118.63V146.88C118.63 147.776 118.862 148.472 119.326 148.968C119.79 149.464 120.414 149.712 121.198 149.712C121.998 149.712 122.63 149.464 123.094 148.968C123.558 148.472 123.79 147.776 123.79 146.88V139.608H127.894ZM138.786 149.52V153H136.698C135.21 153 134.05 152.64 133.218 151.92C132.386 151.184 131.97 149.992 131.97 148.344V143.016H130.338V139.608H131.97V136.344H136.074V139.608H138.762V143.016H136.074V148.392C136.074 148.792 136.17 149.08 136.362 149.256C136.554 149.432 136.874 149.52 137.322 149.52H138.786ZM140.736 146.28C140.736 144.904 140.992 143.696 141.504 142.656C142.032 141.616 142.744 140.816 143.64 140.256C144.536 139.696 145.536 139.416 146.64 139.416C147.584 139.416 148.408 139.608 149.112 139.992C149.832 140.376 150.384 140.88 150.768 141.504V139.608H154.872V153H150.768V151.104C150.368 151.728 149.808 152.232 149.088 152.616C148.384 153 147.56 153.192 146.616 153.192C145.528 153.192 144.536 152.912 143.64 152.352C142.744 151.776 142.032 150.968 141.504 149.928C140.992 148.872 140.736 147.656 140.736 146.28ZM150.768 146.304C150.768 145.28 150.48 144.472 149.904 143.88C149.344 143.288 148.656 142.992 147.84 142.992C147.024 142.992 146.328 143.288 145.752 143.88C145.192 144.456 144.912 145.256 144.912 146.28C144.912 147.304 145.192 148.12 145.752 148.728C146.328 149.32 147.024 149.616 147.84 149.616C148.656 149.616 149.344 149.32 149.904 148.728C150.48 148.136 150.768 147.328 150.768 146.304Z" fill="white"/>
<defs>
<filter id="filter0_d_565_1591" x="0" y="0" width="262" height="262" filterUnits="userSpaceOnUse" color-interpolation-filters="sRGB">
<feFlood flood-opacity="0" result="BackgroundImageFix"/>
<feColorMatrix in="SourceAlpha" type="matrix" values="0 0 0 0 0 0 0 0 0 0 0 0 0 0 0 0 0 0 127 0" result="hardAlpha"/>
<feOffset dy="10"/>
<feGaussianBlur stdDeviation="30"/>
<feComposite in2="hardAlpha" operator="out"/>
<feColorMatrix type="matrix" values="0 0 0 0 0.976471 0 0 0 0 0.635294 0 0 0 0 0.0823529 0 0 0 0.43 0"/>
<feBlend mode="normal" in2="BackgroundImageFix" result="effect1_dropShadow_565_1591"/>
<feBlend mode="normal" in="SourceGraphic" in2="effect1_dropShadow_565_1591" result="shape"/>
</filter>
</defs>
</svg>
