<svg width="262" height="262" viewBox="0 0 262 262" fill="none" xmlns="http://www.w3.org/2000/svg">
<g filter="url(#filter0_d_565_1613)">
<circle cx="131" cy="121" r="71" fill="#F9A215"/>
</g>
<path d="M120.598 99.68C120.384 98.6933 120.011 97.96 119.478 97.48C118.944 96.9733 118.184 96.72 117.198 96.72C115.678 96.72 114.584 97.3867 113.918 98.72C113.251 100.027 112.904 102.107 112.878 104.96C113.464 104.027 114.304 103.293 115.398 102.76C116.518 102.227 117.744 101.96 119.078 101.96C121.691 101.96 123.784 102.787 125.358 104.44C126.958 106.093 127.758 108.4 127.758 111.36C127.758 113.307 127.358 115.013 126.558 116.48C125.784 117.947 124.638 119.093 123.118 119.92C121.624 120.747 119.851 121.16 117.798 121.16C113.691 121.16 110.838 119.88 109.238 117.32C107.638 114.733 106.838 111.027 106.838 106.2C106.838 101.133 107.678 97.3733 109.358 94.92C111.064 92.44 113.784 91.2 117.518 91.2C119.518 91.2 121.198 91.6 122.558 92.4C123.944 93.1733 124.984 94.2 125.678 95.48C126.398 96.76 126.824 98.16 126.958 99.68H120.598ZM117.438 107.36C116.291 107.36 115.331 107.707 114.558 108.4C113.811 109.067 113.438 110.027 113.438 111.28C113.438 112.56 113.784 113.56 114.478 114.28C115.198 115 116.211 115.36 117.518 115.36C118.691 115.36 119.611 115.013 120.278 114.32C120.971 113.6 121.318 112.627 121.318 111.4C121.318 110.147 120.984 109.16 120.318 108.44C119.651 107.72 118.691 107.36 117.438 107.36ZM152.987 97.76H140.507V103.28C141.04 102.693 141.787 102.213 142.747 101.84C143.707 101.467 144.747 101.28 145.867 101.28C147.867 101.28 149.52 101.733 150.827 102.64C152.16 103.547 153.133 104.72 153.747 106.16C154.36 107.6 154.667 109.16 154.667 110.84C154.667 113.96 153.787 116.44 152.027 118.28C150.267 120.093 147.787 121 144.587 121C142.453 121 140.6 120.64 139.027 119.92C137.453 119.173 136.24 118.147 135.387 116.84C134.533 115.533 134.067 114.027 133.987 112.32H140.667C140.827 113.147 141.213 113.84 141.827 114.4C142.44 114.933 143.28 115.2 144.347 115.2C145.6 115.2 146.533 114.8 147.147 114C147.76 113.2 148.067 112.133 148.067 110.8C148.067 109.493 147.747 108.493 147.107 107.8C146.467 107.107 145.533 106.76 144.307 106.76C143.4 106.76 142.653 106.987 142.067 107.44C141.48 107.867 141.093 108.44 140.907 109.16H134.307V91.76H152.987V97.76ZM108.675 138.216C107.955 138.216 107.363 138.008 106.899 137.592C106.451 137.16 106.227 136.632 106.227 136.008C106.227 135.368 106.451 134.84 106.899 134.424C107.363 133.992 107.955 133.776 108.675 133.776C109.379 133.776 109.955 133.992 110.403 134.424C110.867 134.84 111.099 135.368 111.099 136.008C111.099 136.632 110.867 137.16 110.403 137.592C109.955 138.008 109.379 138.216 108.675 138.216ZM110.739 154.728C110.739 156.376 110.323 157.56 109.491 158.28C108.659 159.016 107.499 159.384 106.011 159.384H104.403V155.904H105.387C105.835 155.904 106.155 155.816 106.347 155.64C106.539 155.464 106.635 155.176 106.635 154.776V139.608H110.739V154.728ZM127.394 139.608V153H123.29V151.176C122.874 151.768 122.306 152.248 121.586 152.616C120.882 152.968 120.098 153.144 119.234 153.144C118.21 153.144 117.306 152.92 116.522 152.472C115.738 152.008 115.13 151.344 114.698 150.48C114.266 149.616 114.05 148.6 114.05 147.432V139.608H118.13V146.88C118.13 147.776 118.362 148.472 118.826 148.968C119.29 149.464 119.914 149.712 120.698 149.712C121.498 149.712 122.13 149.464 122.594 148.968C123.058 148.472 123.29 147.776 123.29 146.88V139.608H127.394ZM138.286 149.52V153H136.198C134.71 153 133.55 152.64 132.718 151.92C131.886 151.184 131.47 149.992 131.47 148.344V143.016H129.838V139.608H131.47V136.344H135.574V139.608H138.262V143.016H135.574V148.392C135.574 148.792 135.67 149.08 135.862 149.256C136.054 149.432 136.374 149.52 136.822 149.52H138.286ZM140.236 146.28C140.236 144.904 140.492 143.696 141.004 142.656C141.532 141.616 142.244 140.816 143.14 140.256C144.036 139.696 145.036 139.416 146.14 139.416C147.084 139.416 147.908 139.608 148.612 139.992C149.332 140.376 149.884 140.88 150.268 141.504V139.608H154.372V153H150.268V151.104C149.868 151.728 149.308 152.232 148.588 152.616C147.884 153 147.06 153.192 146.116 153.192C145.028 153.192 144.036 152.912 143.14 152.352C142.244 151.776 141.532 150.968 141.004 149.928C140.492 148.872 140.236 147.656 140.236 146.28ZM150.268 146.304C150.268 145.28 149.98 144.472 149.404 143.88C148.844 143.288 148.156 142.992 147.34 142.992C146.524 142.992 145.828 143.288 145.252 143.88C144.692 144.456 144.412 145.256 144.412 146.28C144.412 147.304 144.692 148.12 145.252 148.728C145.828 149.32 146.524 149.616 147.34 149.616C148.156 149.616 148.844 149.32 149.404 148.728C149.98 148.136 150.268 147.328 150.268 146.304Z" fill="white"/>
<defs>
<filter id="filter0_d_565_1613" x="0" y="0" width="262" height="262" filterUnits="userSpaceOnUse" color-interpolation-filters="sRGB">
<feFlood flood-opacity="0" result="BackgroundImageFix"/>
<feColorMatrix in="SourceAlpha" type="matrix" values="0 0 0 0 0 0 0 0 0 0 0 0 0 0 0 0 0 0 127 0" result="hardAlpha"/>
<feOffset dy="10"/>
<feGaussianBlur stdDeviation="30"/>
<feComposite in2="hardAlpha" operator="out"/>
<feColorMatrix type="matrix" values="0 0 0 0 0.976471 0 0 0 0 0.635294 0 0 0 0 0.0823529 0 0 0 0.43 0"/>
<feBlend mode="normal" in2="BackgroundImageFix" result="effect1_dropShadow_565_1613"/>
<feBlend mode="normal" in="SourceGraphic" in2="effect1_dropShadow_565_1613" result="shape"/>
</filter>
</defs>
</svg>
