<svg width="262" height="262" viewBox="0 0 262 262" fill="none" xmlns="http://www.w3.org/2000/svg">
<g filter="url(#filter0_d_590_1916)">
<circle cx="131" cy="121" r="71" fill="#F9A215"/>
</g>
<path d="M105.056 115.8V110.28L117.696 92.2H125.336V109.88H128.616V115.8H125.336V121H118.496V115.8H105.056ZM118.976 99.72L112.256 109.88H118.976V99.72ZM137.566 105.32C135.06 103.987 133.806 101.893 133.806 99.04C133.806 97.6 134.18 96.2933 134.926 95.12C135.673 93.92 136.806 92.9733 138.326 92.28C139.846 91.56 141.713 91.2 143.926 91.2C146.14 91.2 147.993 91.56 149.486 92.28C151.006 92.9733 152.14 93.92 152.886 95.12C153.633 96.2933 154.006 97.6 154.006 99.04C154.006 100.48 153.66 101.733 152.966 102.8C152.3 103.867 151.393 104.707 150.246 105.32C151.686 106.013 152.793 106.973 153.566 108.2C154.34 109.4 154.726 110.813 154.726 112.44C154.726 114.333 154.246 115.973 153.286 117.36C152.326 118.72 151.02 119.76 149.366 120.48C147.74 121.2 145.926 121.56 143.926 121.56C141.926 121.56 140.1 121.2 138.446 120.48C136.82 119.76 135.526 118.72 134.566 117.36C133.606 115.973 133.126 114.333 133.126 112.44C133.126 110.787 133.513 109.36 134.286 108.16C135.06 106.933 136.153 105.987 137.566 105.32ZM147.366 100.08C147.366 98.9867 147.046 98.1467 146.406 97.56C145.793 96.9467 144.966 96.64 143.926 96.64C142.886 96.64 142.046 96.9467 141.406 97.56C140.793 98.1733 140.486 99.0267 140.486 100.12C140.486 101.16 140.806 101.987 141.446 102.6C142.086 103.187 142.913 103.48 143.926 103.48C144.94 103.48 145.766 103.173 146.406 102.56C147.046 101.947 147.366 101.12 147.366 100.08ZM143.926 108.28C142.673 108.28 141.66 108.627 140.886 109.32C140.113 109.987 139.726 110.92 139.726 112.12C139.726 113.24 140.1 114.16 140.846 114.88C141.62 115.6 142.646 115.96 143.926 115.96C145.206 115.96 146.206 115.6 146.926 114.88C147.673 114.16 148.046 113.24 148.046 112.12C148.046 110.947 147.66 110.013 146.886 109.32C146.14 108.627 145.153 108.28 143.926 108.28ZM98.632 141.504C99.016 140.88 99.568 140.376 100.288 139.992C101.008 139.608 101.832 139.416 102.76 139.416C103.864 139.416 104.864 139.696 105.76 140.256C106.656 140.816 107.36 141.616 107.872 142.656C108.4 143.696 108.664 144.904 108.664 146.28C108.664 147.656 108.4 148.872 107.872 149.928C107.36 150.968 106.656 151.776 105.76 152.352C104.864 152.912 103.864 153.192 102.76 153.192C101.816 153.192 100.992 153.008 100.288 152.64C99.584 152.256 99.032 151.752 98.632 151.128V153H94.528V135.24H98.632V141.504ZM104.488 146.28C104.488 145.256 104.2 144.456 103.624 143.88C103.064 143.288 102.368 142.992 101.536 142.992C100.72 142.992 100.024 143.288 99.448 143.88C98.888 144.472 98.608 145.28 98.608 146.304C98.608 147.328 98.888 148.136 99.448 148.728C100.024 149.32 100.72 149.616 101.536 149.616C102.352 149.616 103.048 149.32 103.624 148.728C104.2 148.12 104.488 147.304 104.488 146.28ZM124.521 139.608V153H120.417V151.176C120.001 151.768 119.433 152.248 118.713 152.616C118.009 152.968 117.225 153.144 116.361 153.144C115.337 153.144 114.433 152.92 113.649 152.472C112.865 152.008 112.257 151.344 111.825 150.48C111.393 149.616 111.177 148.6 111.177 147.432V139.608H115.257V146.88C115.257 147.776 115.489 148.472 115.953 148.968C116.417 149.464 117.041 149.712 117.825 149.712C118.625 149.712 119.257 149.464 119.721 148.968C120.185 148.472 120.417 147.776 120.417 146.88V139.608H124.521ZM132.053 135.24V153H127.949V135.24H132.053ZM134.691 146.28C134.691 144.904 134.947 143.696 135.459 142.656C135.987 141.616 136.699 140.816 137.595 140.256C138.491 139.696 139.491 139.416 140.595 139.416C141.539 139.416 142.363 139.608 143.067 139.992C143.787 140.376 144.339 140.88 144.723 141.504V139.608H148.827V153H144.723V151.104C144.323 151.728 143.763 152.232 143.043 152.616C142.339 153 141.515 153.192 140.571 153.192C139.483 153.192 138.491 152.912 137.595 152.352C136.699 151.776 135.987 150.968 135.459 149.928C134.947 148.872 134.691 147.656 134.691 146.28ZM144.723 146.304C144.723 145.28 144.435 144.472 143.859 143.88C143.299 143.288 142.611 142.992 141.795 142.992C140.979 142.992 140.283 143.288 139.707 143.88C139.147 144.456 138.867 145.256 138.867 146.28C138.867 147.304 139.147 148.12 139.707 148.728C140.283 149.32 140.979 149.616 141.795 149.616C142.611 149.616 143.299 149.32 143.859 148.728C144.435 148.136 144.723 147.328 144.723 146.304ZM160.436 139.464C162.004 139.464 163.252 139.976 164.18 141C165.124 142.008 165.596 143.4 165.596 145.176V153H161.516V145.728C161.516 144.832 161.284 144.136 160.82 143.64C160.356 143.144 159.732 142.896 158.948 142.896C158.164 142.896 157.54 143.144 157.076 143.64C156.612 144.136 156.38 144.832 156.38 145.728V153H152.276V139.608H156.38V141.384C156.796 140.792 157.356 140.328 158.06 139.992C158.764 139.64 159.556 139.464 160.436 139.464Z" fill="white"/>
<defs>
<filter id="filter0_d_590_1916" x="0" y="0" width="262" height="262" filterUnits="userSpaceOnUse" color-interpolation-filters="sRGB">
<feFlood flood-opacity="0" result="BackgroundImageFix"/>
<feColorMatrix in="SourceAlpha" type="matrix" values="0 0 0 0 0 0 0 0 0 0 0 0 0 0 0 0 0 0 127 0" result="hardAlpha"/>
<feOffset dy="10"/>
<feGaussianBlur stdDeviation="30"/>
<feComposite in2="hardAlpha" operator="out"/>
<feColorMatrix type="matrix" values="0 0 0 0 0.976471 0 0 0 0 0.635294 0 0 0 0 0.0823529 0 0 0 0.43 0"/>
<feBlend mode="normal" in2="BackgroundImageFix" result="effect1_dropShadow_590_1916"/>
<feBlend mode="normal" in="SourceGraphic" in2="effect1_dropShadow_590_1916" result="shape"/>
</filter>
</defs>
</svg>
